<svg width="40" height="39" viewBox="0 0 40 39" fill="none" xmlns="http://www.w3.org/2000/svg">
<path d="M35.625 38.4287H29.375L32.5 35.3818L35.625 38.4287Z" fill="#993B36"/>
<path d="M35.625 9.71954V38.4287L32.5 35.3818V9.71954H35.625Z" fill="#A8443F"/>
<path d="M32.5 9.71954V35.3818L29.375 38.4287V9.71954H32.5Z" fill="#BF4943"/>
<path d="M21.5625 9.71954H27.8125H29.375V38.4287H4.375V9.71954H12.1875H18.4375H21.5625Z" fill="#CF5147"/>
<path d="M29.375 9.71954H27.0312V38.4287H29.375V9.71954Z" fill="#CF5147"/>
<path d="M36.2109 38.4287V9.71953C36.2109 9.56719 36.1484 9.42246 36.0391 9.31582C35.9297 9.20918 35.7812 9.14824 35.625 9.14824H29.375H28.3984V5.1416C28.3984 2.30801 26.0312 0 23.125 0C21.9531 0 20.875 0.373242 20 1.00547C19.125 0.373242 18.0469 0 16.875 0C13.9688 0 11.6016 2.30801 11.6016 5.1416V9.14824H4.375C4.21875 9.14824 4.07031 9.20918 3.96094 9.31582C3.85156 9.42246 3.78906 9.56719 3.78906 9.71953V28.5264C3.78906 28.8387 4.05469 29.0977 4.375 29.0977C4.69531 29.0977 4.96094 28.8387 4.96094 28.5264V10.2908H11.6016V13.5281C11.6016 13.8404 11.8672 14.0994 12.1875 14.0994C12.5078 14.0994 12.7734 13.8404 12.7734 13.5281V10.2908H20.9766V13.5281C20.9766 13.8404 21.2422 14.0994 21.5625 14.0994C21.8828 14.0994 22.1484 13.8404 22.1484 13.5281V10.2908H28.7891V18.624V20.9092V37.8574H4.96094V30.8115C4.96094 30.4992 4.69531 30.2402 4.375 30.2402C4.05469 30.2402 3.78906 30.4992 3.78906 30.8115V38.4287C3.78906 38.5811 3.85156 38.7258 3.96094 38.8324C4.07031 38.9391 4.21875 39 4.375 39H29.375H35.625C35.7734 39 35.9219 38.9467 36.0391 38.8324C36.1406 38.7334 36.1953 38.6115 36.2109 38.4896C36.2109 38.4668 36.2109 38.4516 36.2109 38.4287ZM12.7734 5.1416C12.7734 2.94023 14.6172 1.14258 16.875 1.14258C17.7031 1.14258 18.4766 1.38633 19.125 1.79766C18.3359 2.69648 17.8516 3.86191 17.8516 5.1416C17.8516 5.1416 17.8516 5.1416 17.8516 5.14922V9.15586H12.7734V5.1416ZM19.0234 9.14824V5.1416C19.0234 4.15898 19.3906 3.25254 20 2.55937C20.6094 3.26016 20.9766 4.15898 20.9766 5.1416V9.14824H19.0234ZM22.1484 5.1416C22.1484 3.86191 21.6719 2.69648 20.875 1.79766C21.5234 1.38633 22.2969 1.14258 23.125 1.14258C25.3828 1.14258 27.2266 2.94023 27.2266 5.1416V9.14824H22.1484V5.1416ZM35.0391 37.05L33.0859 35.1457V10.2908H35.0391V37.05ZM29.9609 20.9092V18.624V10.2908H31.9141V35.1457L29.9609 37.05V20.9092ZM32.5 36.1893L34.2109 37.8574H30.7891L32.5 36.1893Z" fill="black"/>
<path d="M4.96094 26.942H3.78906V31.6342H4.96094V26.942Z" fill="black"/>
</svg>
