<svg width="217" height="263" viewBox="0 0 217 263" fill="none" xmlns="http://www.w3.org/2000/svg">
<path fill-rule="evenodd" clip-rule="evenodd" d="M80.9527 1.5679C76.4625 2.45268 72.1764 3.54164 68.9789 4.76673C67.6182 5.24315 66.1215 5.78764 65.5092 5.92376C62.7879 6.74048 53.3313 11.9811 49.7255 14.7035C44.9632 18.3107 38.9763 24.4362 36.0509 28.8601C29.996 37.7079 25.3017 50.5033 23.6689 62.55C22.7845 69.356 21.5599 80.3137 21.0156 85.7585C20.3353 93.7216 19.655 98.4178 18.2943 103.726C16.9337 109.103 15.4369 112.234 11.2869 119.312C6.38856 127.548 3.19101 134.762 1.55822 141.16C0.197561 146.4 0.12953 147.557 0.401661 154.227C0.809859 165.525 3.66724 174.713 9.17791 182.404C17.2058 193.77 32.3091 204.932 44.419 208.675C46.528 209.356 48.2288 210.037 48.2288 210.309C48.2288 210.581 45.7796 213.236 42.7862 216.23C32.173 226.984 26.8665 238.01 29.0435 244.679C31.6968 252.574 45.9157 258.7 68.2305 261.558C75.374 262.443 100.138 262.443 107.145 261.558C114.833 260.537 122.249 259.448 124.698 258.904C125.854 258.632 128.304 258.087 130.072 257.815C131.841 257.407 134.359 256.862 135.651 256.454C137.012 256.045 138.985 255.501 140.209 255.161C146.877 253.323 152.115 251.758 153.544 251.145C154.428 250.737 155.993 250.124 157.013 249.784C158.034 249.376 161.232 247.81 164.021 246.449C172.321 242.297 176.675 237.533 176.675 232.633C176.675 227.664 171.913 216.57 166.946 210.377C165.45 208.539 164.293 206.974 164.429 206.838C164.497 206.77 167.423 205.749 170.756 204.728C196.609 196.357 212.12 179.818 215.25 157.29C216.134 150.824 216.27 145.72 215.522 140.003C213.685 126.254 209.943 119.38 196.881 105.972C183.342 92.0881 181.369 89.0935 178.92 79.0206C172.797 53.1576 164.701 37.1635 150.891 23.7556C138.304 11.7089 121.84 3.95001 102.723 1.29565C97.6207 0.615051 85.4428 0.819233 80.9527 1.5679ZM69.7953 50.7755C75.2379 58.2622 81.9051 66.2933 86.7355 71.3978C88.7084 73.4396 90.2051 75.2772 90.2051 75.5495C90.2051 75.7537 89.5248 75.9578 88.7764 75.9578C87.2797 75.9578 83.5379 77.1149 81.565 78.1358C80.4084 78.8164 80.2723 80.9262 81.4969 81.8791C82.1772 82.4236 82.7896 82.3555 84.9666 81.6068C86.9396 80.9262 88.7084 80.7221 91.974 80.8582L96.3281 81.0624L100.886 84.7376C105.853 88.8212 113.54 93.9938 117.622 96.1037C122.385 98.5539 129.8 101.208 130.957 100.868C131.637 100.664 132.794 99.5067 133.814 98.2136C136.944 93.9258 143.883 91.884 148.169 94.0619C151.979 96.0356 153.612 98.6219 154.768 104.407C156.877 115.229 149.122 127.752 140.345 127.752C138.713 127.752 137.08 127.207 134.699 125.914C131.365 124.076 131.297 124.076 130.277 125.029C129.732 125.574 129.12 127.071 128.916 128.364C127.895 134.286 124.494 140.955 119.936 145.72C116.058 149.803 115.717 151.096 118.099 152.117C119.187 152.662 119.391 153.274 120.072 159.264C120.752 165.457 122.317 172.876 124.154 178.184C126.127 183.902 129.256 188.257 133.406 190.844C134.563 191.592 135.583 192.477 135.583 192.817C135.583 193.77 127.487 201.869 124.154 204.184C118.575 208.131 111.363 210.99 104.356 212.147C98.3691 213.031 88.9125 212.419 84.8305 210.717C80.1363 208.88 75.3059 203.979 75.3059 201.189C75.3059 200.576 78.0272 199.011 82.9936 196.629C89.7969 193.294 90.8855 192.613 92.1781 190.639C93.5387 188.53 93.6068 187.917 93.6068 183.017C93.6068 177.844 92.3822 171.106 91.1576 169.541C90.4092 168.588 90.9535 168.043 93.4707 167.295C94.7633 166.886 97.4847 165.934 99.5257 165.185C102.995 163.892 103.267 163.688 103.267 162.19C103.267 160.829 103.063 160.625 101.839 160.421C100.954 160.353 98.9814 160.693 97.2806 161.306C86.3953 165.117 75.3059 166.002 67.0059 163.824C57.9575 161.374 47.4124 153.683 42.6501 145.856C40.337 142.112 39.5206 140.275 38.9763 137.552C38.0239 133.06 36.3231 118.7 36.3231 114.888C36.3231 112.642 36.1189 108.967 35.7788 106.585C35.5067 104.271 35.1665 99.3706 35.0985 95.6273C34.8944 87.1197 35.9149 83.7167 38.8403 82.4236C41.1534 81.4707 46.3239 81.3346 50.2698 82.2194C53.7395 83.0361 55.1682 82.4236 54.828 80.3818C54.5559 78.5441 51.0182 77.251 45.7796 76.9787C43.1263 76.7746 41.0854 76.5704 41.0854 76.2981C41.0854 74.7328 51.2903 59.7595 57.8895 51.5922C60.2026 48.7337 62.5157 45.8752 62.992 45.3307C63.4002 44.7862 64.0805 44.3778 64.4887 44.3098C64.8969 44.514 67.278 47.3725 69.7953 50.7755Z" fill="#010101"/>
<path fill-rule="evenodd" clip-rule="evenodd" d="M41.2214 90.727C37.5476 92.2923 36.5951 94.198 38.5 95.9676C39.4525 96.8524 39.6566 96.8524 42.2419 95.5592C46.1197 93.5174 47.9566 93.8577 45.5074 96.0357C44.623 96.7843 44.4189 97.6691 44.4189 100.323C44.4189 104.407 45.6435 105.904 49.1132 105.904C52.5148 105.904 53.4673 104.611 53.4673 100.051C53.4673 98.0094 53.7394 95.8315 54.1476 95.287C56.3247 91.6798 46.732 88.3448 41.2214 90.727Z" fill="#010101"/>
<path fill-rule="evenodd" clip-rule="evenodd" d="M90.0691 90.6589C87.1436 91.6798 85.783 93.1771 86.2592 94.8106C86.7354 96.7843 88.2322 97.0566 90.5453 95.6954C91.6338 95.0148 92.5863 94.6745 92.7224 94.8106C92.9264 95.0148 92.7223 95.8315 92.4502 96.7843C91.6338 99.0984 92.1781 103.522 93.3346 104.815C94.6953 106.381 98.4371 106.245 99.8658 104.611C100.818 103.59 101.022 102.774 101.022 100.051C101.022 97.9414 101.294 96.6482 101.703 96.376C102.655 95.7634 103.199 94.3342 102.791 93.2452C102.587 92.7688 101.226 91.8159 99.7297 91.1353C96.5322 89.7061 93.1986 89.5699 90.0691 90.6589Z" fill="#010101"/>
<path fill-rule="evenodd" clip-rule="evenodd" d="M141.23 104.475C139.189 105.36 136.331 108.286 135.651 110.26C134.563 113.459 138.508 114.888 140.073 111.826C141.23 109.648 142.727 108.559 145.244 108.15C147.285 107.742 147.557 107.538 147.761 106.177C147.829 105.292 147.693 104.475 147.217 104.203C146.196 103.522 142.999 103.658 141.23 104.475Z" fill="#010101"/>
<path fill-rule="evenodd" clip-rule="evenodd" d="M60.543 117.679C59.6586 118.564 59.7946 121.354 60.8151 122.647C62.652 124.961 65.5774 125.642 67.7545 124.145C69.8635 122.647 68.9111 120.265 65.9856 119.993C65.2373 119.925 64.5569 119.721 64.4889 119.585C64.4209 119.516 64.0807 118.904 63.8086 118.291C63.1283 117.134 61.4955 116.726 60.543 117.679Z" fill="#010101"/>
<path fill-rule="evenodd" clip-rule="evenodd" d="M75.8503 132.244C73.8094 133.809 73.061 134.081 70.4077 134.081C67.8905 134.081 66.938 133.809 65.5093 132.72C63.4684 131.155 62.9921 131.087 61.8356 132.312C60.611 133.673 60.747 134.286 62.5159 135.987C65.5093 138.778 69.2511 139.458 74.1495 138.029C77.279 137.076 80.6807 134.422 80.6807 132.924C80.6807 131.972 79.32 130.27 78.6397 130.27C78.4356 130.406 77.211 131.291 75.8503 132.244Z" fill="#010101"/>
<path d="M101.091 118.836C104.698 118.836 107.622 116.886 107.622 114.48C107.622 112.074 104.698 110.124 101.091 110.124C97.4837 110.124 94.5596 112.074 94.5596 114.48C94.5596 116.886 97.4837 118.836 101.091 118.836Z" fill="#D05248"/>
<path d="M40.5414 118.836C44.1485 118.836 47.0726 116.886 47.0726 114.48C47.0726 112.074 44.1485 110.124 40.5414 110.124C36.9344 110.124 34.0103 112.074 34.0103 114.48C34.0103 116.886 36.9344 118.836 40.5414 118.836Z" fill="#D05248"/>
<path d="M142.522 172.127L118.371 160.829C114.561 159.06 112.928 154.5 114.697 150.688L138.1 100.596C139.869 96.7843 144.427 95.1509 148.237 96.9204L172.389 108.218C176.199 109.988 177.831 114.548 176.063 118.359L152.659 168.452C150.89 172.263 146.332 173.965 142.522 172.127Z" fill="#D25248" stroke="black" stroke-width="2" stroke-miterlimit="10"/>
<path d="M142.795 106.925C144.223 107.606 145.856 106.993 146.536 105.564C147.217 104.135 146.604 102.501 145.176 101.821C143.747 101.14 142.114 101.753 141.434 103.182C140.822 104.611 141.434 106.245 142.795 106.925Z" fill="white" stroke="black" stroke-width="2" stroke-miterlimit="10"/>
<path d="M148.441 109.58C149.054 109.852 149.802 109.58 150.142 108.967C150.414 108.355 150.142 107.606 149.53 107.266C148.918 106.993 148.169 107.266 147.829 107.878C147.557 108.491 147.829 109.239 148.441 109.58Z" fill="black" stroke="black" stroke-width="2" stroke-miterlimit="10"/>
<path d="M159.939 153.955C159.463 153.955 159.258 154.84 157.83 158.243C156.061 162.258 155.108 164.368 154.496 164.3C153.952 164.232 153.816 162.531 153.68 156.269C153.612 152.798 153.476 148.987 153.408 145.856C153.067 137.757 152.455 135.783 151.163 135.306C150.482 135.034 149.598 135.238 149.122 135.579C147.965 136.259 147.829 137.757 147.557 140.343C147.285 142.385 146.74 147.421 146.74 147.557C146.604 149.531 146.4 151.573 146.128 153.683C145.924 155.248 145.788 156.745 145.584 158.243C145.584 158.379 145.516 158.583 145.516 158.855C145.38 160.012 145.244 160.829 145.176 161.033C145.108 161.646 145.108 161.51 144.972 162.054C144.904 162.463 144.836 162.803 144.699 163.824C144.563 164.981 144.563 165.049 144.495 165.049C144.291 165.049 144.155 160.557 144.155 159.74C144.155 159.128 144.223 158.447 144.223 158.447C144.223 158.311 144.223 158.107 144.291 157.903C144.359 156.745 144.427 156.269 144.631 154.84C144.767 153.819 144.904 152.39 145.04 150.756C145.108 149.599 145.108 148.714 145.108 148.238C145.176 143.678 145.516 141.432 145.312 137.348C145.176 134.149 144.904 132.72 143.883 132.176C143.203 131.835 142.454 132.04 142.386 132.04C139.937 132.72 139.257 138.165 138.236 146.4C138.236 146.468 138.236 146.604 138.168 146.877C137.964 148.442 137.692 149.599 137.624 150.076C137.624 150.212 137.42 151.369 137.012 153.819C136.672 155.725 136.331 157.63 136.059 159.536C135.787 160.761 135.719 161.578 135.651 162.19C135.583 162.939 135.311 164.368 135.243 164.368C135.107 164.368 135.175 160.557 135.651 156.473C135.991 153.342 136.876 148.17 136.876 147.898C136.876 147.83 136.876 147.762 136.944 147.693C136.944 147.489 137.012 147.285 137.012 147.285C137.08 146.877 137.488 144.358 137.692 142.793C137.692 142.657 137.76 141.908 137.896 140.547C138.1 138.778 138.168 137.825 138.168 137.621C138.168 135.987 138.168 134.286 137.08 133.537C136.808 133.401 136.195 133.06 135.039 133.333C134.699 133.537 134.222 133.877 133.814 134.422C133.406 134.966 133.202 135.443 133.134 135.647C131.637 139.526 131.365 140.955 131.365 140.955C130.957 142.929 130.685 144.631 130.208 148.102C130.14 148.442 130.072 149.123 129.936 150.144C129.732 151.505 129.528 152.526 129.46 152.662C129.12 154.431 127.963 163.007 127.827 163.007C127.691 163.007 128.099 158.719 128.508 152.798C129.12 143.338 129.12 140.411 127.691 139.798C127.215 139.594 126.467 139.594 125.174 140.479C125.106 140.547 125.038 140.751 124.902 140.887C123.269 143.542 122.793 145.992 122.589 147.081C120.412 158.719 120.003 161.85 120.003 161.85C119.255 167.295 118.915 169.949 118.915 170.221C118.235 177.368 118.439 182.949 118.575 185.331C118.711 188.257 118.983 190.367 119.051 190.98C119.323 193.634 119.731 195.948 120.072 197.854C125.038 199.147 128.916 199.623 131.705 199.76C134.29 199.896 136.331 199.896 137.624 199.896C141.638 199.896 145.04 199.555 147.557 199.283C151.231 196.629 153.408 193.838 154.7 191.933C156.605 189.074 157.626 186.42 158.986 182.608C159.531 181.111 160.279 179.069 161.027 176.279C161.708 173.761 162.592 170.085 162.66 165.661C162.456 159.876 161.163 153.955 159.939 153.955Z" fill="white" stroke="black" stroke-width="2" stroke-miterlimit="10"/>
<path d="M119.391 196.765C118.167 202.89 117.078 208.267 116.126 212.623C113.677 224.602 113.132 227.46 112.52 230.523C111.364 236.784 110.411 242.093 109.731 246.177L107.554 256.658L106.941 259.721L146.877 250.737C147.557 244.407 148.237 238.01 148.918 231.68C149.258 225.418 149.598 219.157 149.938 212.827C150.278 207.382 150.687 202.006 151.027 196.561C148.101 198.058 141.91 200.644 133.814 200.304C127.283 200.168 122.249 198.194 119.391 196.765Z" fill="black" stroke="black" stroke-width="2" stroke-miterlimit="10"/>
</svg>
