<svg width="304" height="68" viewBox="0 0 304 68" fill="none" xmlns="http://www.w3.org/2000/svg">
<path fill-rule="evenodd" clip-rule="evenodd" d="M9.5999 32.5H3.8999L9.6999 4.69998H20.9999C22.9999 4.69998 24.5999 4.89998 25.7999 5.39998C26.9999 5.89998 27.8999 6.69998 28.5999 7.69998C29.2999 8.79998 29.5999 10.1 29.5999 11.6C29.5999 13 29.2999 14.4 28.7999 15.7C28.2999 17 27.5999 18.1 26.7999 18.9C26.0999 19.7 25.1999 20.3 24.1999 20.7C23.2999 21.1 22.0999 21.4 20.4999 21.6C19.5999 21.7 17.8999 21.8 15.4999 21.8H11.7999L9.5999 32.5ZM12.7999 17.3H14.5999C17.5999 17.3 19.5999 17.1 20.5999 16.7C21.5999 16.4 22.3999 15.7 22.9999 14.9C23.5999 14.1 23.8999 13.1 23.8999 12.2C23.8999 11.5 23.7999 11 23.4999 10.6C23.1999 10.2 22.7999 9.79998 22.2999 9.69998C21.7999 9.49998 20.5999 9.39998 18.6999 9.39998H14.5999L12.7999 17.3ZM29.4999 21.6C29.4999 20 29.7999 18.2 30.1999 16.4C30.7999 14 31.7999 11.8 33.0999 9.99998C34.3999 8.19998 36.0999 6.79998 38.0999 5.69998C40.0999 4.69998 42.3999 4.09998 44.9999 4.09998C48.3999 4.09998 51.1999 5.19998 53.2999 7.29998C55.3999 9.39998 56.4999 12.3 56.4999 15.8C56.4999 18.7 55.7999 21.6 54.3999 24.3C52.9999 27 51.1999 29.2 48.7999 30.6C46.3999 32.1 43.7999 32.8 40.7999 32.8C38.1999 32.8 35.9999 32.2 34.2999 31C32.4999 29.8 31.2999 28.4 30.5999 26.6C29.7999 25.1 29.4999 23.4 29.4999 21.6ZM35.0999 21.5C35.0999 23.4 35.6999 25 36.7999 26.3C37.9999 27.6 39.4999 28.2 41.3999 28.2C42.8999 28.2 44.3999 27.7 45.7999 26.7C47.1999 25.7 48.3999 24.1 49.2999 22.1C50.1999 20 50.6999 18 50.6999 16.1C50.6999 13.9 50.0999 12.2 48.8999 11C47.8999 9.59998 46.3999 8.99998 44.5999 8.99998C41.7999 8.99998 39.4999 10.3 37.7999 12.9C35.9999 15.5 35.0999 18.4 35.0999 21.5ZM77.8999 32.5H72.5999L65.0999 13.8L61.1999 32.5H55.8999L61.6999 4.69998H66.9999L74.4999 23.3L78.3999 4.69998H83.6999L77.8999 32.5ZM95.5999 32.5H89.8999L92.1999 21.7L84.4999 4.69998H90.5999L94.0999 12.6C94.8999 14.5 95.4999 15.8 95.7999 16.7C96.2999 15.9 96.7999 15 97.3999 14.1L99.9999 10.4L103.9 4.79998H110.5L97.6999 22.2L95.5999 32.5ZM132.6 32.5L138.4 4.69998H159L158 9.29998H143.1L141.8 15.6H156.2L155.2 20.2H140.8L139.1 27.7H155.3L154.3 32.3L132.6 32.5Z" fill="#5B8061"/>
<path fill-rule="evenodd" clip-rule="evenodd" d="M161 32.5H153.6L165.9 18.4L159 4.70002H165L167.7 9.90002C167.8 10.1 168.4 11.4 169.6 13.7C169.7 13.8 169.8 14 169.8 14.2C171.1 12.6 172.4 11.1 173.7 9.60002L178.1 4.60002H185.3L172.6 19.2L179.4 32.4H173L170.9 28.2C169.8 26 169.1 24.4 168.7 23.4C168.2 24.1 166.9 25.7 164.9 28L161 32.5ZM185.8 32.5H180.1L185.9 4.70002H197.2C199.2 4.70002 200.8 4.90002 202 5.40002C203.2 5.90002 204.1 6.70002 204.8 7.70002C205.5 8.80002 205.8 10.1 205.8 11.6C205.8 13 205.5 14.4 205 15.7C204.5 17 203.8 18.1 203 18.9C202.3 19.7 201.4 20.3 200.4 20.7C199.5 21.1 198.3 21.4 196.7 21.6C195.8 21.7 194.1 21.8 191.7 21.8H188L185.8 32.5ZM189 17.3H190.8C193.8 17.3 195.8 17.1 196.8 16.7C197.8 16.4 198.6 15.7 199.2 14.9C199.8 14.1 200.1 13.1 200.1 12.2C200.1 11.5 200 11 199.7 10.6C199.4 10.2 199 9.80002 198.4 9.70002C197.9 9.50002 196.7 9.40002 194.8 9.40002H190.7L189 17.3ZM209.7 32.5H204L209.8 4.70002H222.1C224.2 4.70002 225.9 4.90002 227.1 5.40002C228.3 5.80002 229.2 6.60002 230 7.80002C230.7 9.00002 231.1 10.4 231.1 12C231.1 14.4 230.4 16.3 229 17.9C227.6 19.4 225.4 20.4 222.6 20.8C223.3 21.5 224 22.3 224.7 23.4C226 25.6 227.4 28.6 229 32.6H222.9C222.4 31 221.4 28.6 220 25.3C219.2 23.5 218.4 22.3 217.5 21.7C217 21.3 216 21.1 214.7 21.1H212.4L209.7 32.5ZM213 16.8H216C219.1 16.8 221.1 16.6 222.1 16.2C223.1 15.8 223.9 15.3 224.5 14.5C225.1 13.7 225.3 12.9 225.3 12C225.3 11 224.9 10.2 224.1 9.70002C223.6 9.40002 222.5 9.20002 220.8 9.20002H214.5L213 16.8ZM229.8 32.5L235.6 4.70002H256.2L255.2 9.30002H240.3L239 15.6H253.4L252.4 20.2H238L236.3 27.7H252.5L251.5 32.3L229.8 32.5ZM254.4 23.5L259.8 23.2C259.9 24.9 260.2 26.1 260.7 26.7C261.5 27.7 263.1 28.2 265.3 28.2C267.2 28.2 268.5 27.9 269.4 27.2C270.2 26.5 270.7 25.7 270.7 24.8C270.7 24 270.4 23.3 269.7 22.7C269.2 22.3 267.9 21.6 265.7 20.7C263.5 19.8 262 19 261 18.4C260 17.8 259.2 17 258.7 16C258.1 15 257.8 13.8 257.8 12.5C257.8 10.2 258.6 8.20002 260.3 6.70002C262 5.20002 264.4 4.40002 267.7 4.40002C271 4.40002 273.5 5.20002 275.3 6.70002C277.1 8.20002 278.1 10.3 278.3 12.8L272.8 13C272.7 11.7 272.2 10.6 271.4 9.90002C270.6 9.20002 269.4 8.80002 267.8 8.80002C266.2 8.80002 265.1 9.10002 264.4 9.60002C263.7 10.2 263.4 10.9 263.4 11.7C263.4 12.5 263.7 13.2 264.3 13.7C264.9 14.2 266.3 15 268.4 15.9C271.6 17.3 273.6 18.4 274.5 19.3C275.8 20.6 276.5 22.2 276.5 24.2C276.5 26.7 275.5 28.7 273.6 30.5C271.7 32.2 269 33.1 265.5 33.1C263.1 33.1 261 32.7 259.3 31.9C257.5 31.1 256.3 30 255.6 28.6C254.7 27 254.3 25.3 254.4 23.5ZM278.1 23.5L283.5 23.2C283.6 24.9 283.9 26.1 284.4 26.7C285.2 27.7 286.8 28.2 289 28.2C290.9 28.2 292.2 27.9 293.1 27.2C293.9 26.5 294.4 25.7 294.4 24.8C294.4 24 294.1 23.3 293.4 22.7C292.9 22.3 291.6 21.6 289.4 20.7C287.2 19.8 285.7 19 284.7 18.4C283.7 17.8 282.9 17 282.4 16C281.8 15 281.5 13.8 281.5 12.5C281.5 10.2 282.3 8.20002 284 6.70002C285.7 5.20002 288.1 4.40002 291.4 4.40002C294.7 4.40002 297.2 5.20002 299 6.70002C300.8 8.20002 301.8 10.3 301.9 12.8L296.4 13C296.3 11.7 295.8 10.6 295 9.90002C294.2 9.20002 293 8.80002 291.4 8.80002C289.8 8.80002 288.7 9.10002 288 9.60002C287.3 10.2 287 10.9 287 11.7C287 12.5 287.3 13.2 287.9 13.7C288.5 14.2 289.9 15 292 15.9C295.2 17.3 297.2 18.4 298.1 19.3C299.4 20.6 300.1 22.2 300.1 24.2C300.1 26.7 299.1 28.7 297.2 30.5C295.3 32.2 292.6 33.1 289.1 33.1C286.7 33.1 284.6 32.7 282.9 31.9C281.1 31.1 279.9 30 279.2 28.6C278.4 27 278.1 25.3 278.1 23.5ZM24 60.1H27.3L28.8 52.3L32.9 60.1H36.8L32 51.2L40.2 42.3H36.2L29.2 50.2L30.7 42.3H27.4L24 60.1Z" fill="#5B8061"/>
<path fill-rule="evenodd" clip-rule="evenodd" d="M48 46.7L43.1 55.3L41.4 46.7H38L40.5 58.8L37 64.6H40.6L51.6 46.7H48ZM49.7 64.6H52.9L54 58.7C54.5 59.4 55.6 60.5 58.2 60.5C60.6 60.5 62.3 59.6 63.4 58.6C64.6 57.5 65.7 55.5 65.7 52.8C65.7 50.8 65.1 49.1 63.6 47.8C62.4 46.7 61.1 46.3 59.4 46.3C58.3 46.3 56.8 46.5 55.8 47.5L55.9 46.7H53L49.7 64.6ZM59.1 49.1C61.3 49.1 62.6 50.6 62.6 53C62.6 55.8 60.8 57.7 58.3 57.7C56.1 57.7 54.8 56.2 54.8 53.9C54.9 51 56.8 49.1 59.1 49.1ZM69.1 46.7L66.5 60.1H72.6C73.8 60.1 75.1 60 76.4 58.8C77.4 57.9 78 56.6 78 55.3C78 54.1 77.6 53.1 77 52.5C76.4 51.9 75.4 51.4 73.8 51.4H71.4L72.3 46.7H69.1ZM70.9 54.3H73.2C73.5 54.3 74 54.3 74.4 54.6C74.8 54.9 74.8 55.3 74.8 55.6C74.8 56.2 74.6 56.6 74.1 56.9C73.7 57.1 73.2 57.2 72.7 57.2H70.3L70.9 54.3ZM93.7 54.8C93.8 54.1 93.9 53.5 93.9 52.8C93.9 50.6 93.2 49 92.2 48C90.8 46.5 89 46.2 87.5 46.2C85.7 46.2 83.7 46.6 82 48.2C80.6 49.5 79.7 51.6 79.7 54C79.7 56.3 80.7 57.8 81.5 58.6C82.9 60.1 84.5 60.4 86.1 60.4C88.2 60.4 89.8 59.8 90.9 59C91.9 58.2 92.7 57.2 93.2 56.1H89.6C89.3 56.5 88.9 56.9 88.5 57.1C87.9 57.4 87.3 57.6 86.6 57.6C85.5 57.6 84.7 57.3 84.1 56.7C83.5 56.2 83.2 55.5 83.1 54.7L93.7 54.8ZM83.4 52C83.6 51.2 84.1 50.5 84.7 50C85.4 49.4 86.4 49.1 87.4 49.1C88.6 49.1 89.4 49.6 89.7 49.9C90.2 50.3 90.6 51.1 90.7 52H83.4ZM93.7 64.6H96.9L98 58.7C98.5 59.4 99.6 60.5 102.2 60.5C104.6 60.5 106.3 59.6 107.4 58.6C108.6 57.5 109.7 55.5 109.7 52.8C109.7 50.8 109.1 49.1 107.6 47.8C106.4 46.7 105.1 46.3 103.4 46.3C102.3 46.3 100.8 46.5 99.8 47.5L99.9 46.7H96.9L93.7 64.6ZM103.1 49.1C105.3 49.1 106.6 50.6 106.6 53C106.6 55.8 104.8 57.7 102.3 57.7C100.1 57.7 98.8 56.2 98.8 53.9C98.9 51 100.8 49.1 103.1 49.1ZM121.2 55.8C120.6 57.1 119.3 57.7 117.8 57.7C117.1 57.7 116.1 57.6 115.3 56.7C115 56.4 114.3 55.6 114.3 53.8C114.3 52.4 114.7 51.2 115.5 50.4C116 49.9 117 49 118.7 49C120.1 49 121.3 49.7 121.7 51H125.2C124.9 49 123.4 46.1 118.9 46.1C117.1 46.1 115.1 46.5 113.4 48.2C112.3 49.3 111.1 51.2 111.1 54C111.1 55.7 111.5 57.4 112.9 58.7C114.3 60.1 115.9 60.4 117.6 60.4C121.5 60.4 123.8 58.3 124.7 55.6L121.2 55.8ZM126 60.1H129.2L130.5 53.7L134.3 60.1H138.1L133.7 53.3L140.4 46.7H136.6L130.6 52.8L131.8 46.7H128.6L126 60.1ZM142.6 46.7L140 60.1H143.2L150.8 51.7L149.2 60.1H152.4L155 46.7H151.8L144.2 55.1L145.8 46.7H142.6ZM169.6 54.8C169.7 54.1 169.8 53.4 169.8 52.8C169.8 50.6 169.1 49 168.1 48C166.7 46.5 164.9 46.2 163.4 46.2C161.6 46.2 159.6 46.6 157.9 48.2C156.5 49.5 155.6 51.6 155.6 54C155.6 56.3 156.6 57.8 157.4 58.6C158.8 60.1 160.4 60.4 162 60.4C164.1 60.4 165.7 59.8 166.8 59C167.8 58.2 168.6 57.2 169.1 56.1H165.5C165.2 56.5 164.8 56.9 164.4 57.1C163.8 57.4 163.2 57.6 162.5 57.6C161.4 57.6 160.6 57.3 160 56.7C159.4 56.2 159.1 55.5 159 54.7L169.6 54.8ZM159.3 52C159.5 51.2 160 50.5 160.6 50C161.3 49.4 162.3 49.1 163.3 49.1C164.5 49.1 165.3 49.6 165.6 49.9C166.1 50.3 166.5 51.1 166.6 52H159.3ZM187.5 46.7L182.6 55.3L180.9 46.7H177.4L179.9 58.8L176.3 64.5H179.9L190.9 46.6L187.5 46.7ZM199.9 55.8C199.3 57.1 198 57.7 196.5 57.7C195.8 57.7 194.8 57.6 194 56.7C193.7 56.4 193 55.6 193 53.8C193 52.4 193.4 51.2 194.2 50.4C194.7 49.9 195.7 49 197.4 49C198.8 49 200 49.7 200.4 51H203.9C203.6 49 202.1 46.1 197.6 46.1C195.8 46.1 193.8 46.5 192.1 48.2C191 49.3 189.8 51.2 189.8 54C189.8 55.7 190.2 57.4 191.6 58.7C193 60.1 194.6 60.4 196.3 60.4C200.2 60.4 202.5 58.3 203.4 55.6L199.9 55.8ZM214.4 46.7H210.8L203.4 60.1H207L212.1 50.4L214 60.1H217.3L214.4 46.7ZM230.1 46.7L225.2 55.3L223.5 46.7H220L222.5 58.8L218.9 64.5H222.5L233.5 46.6L230.1 46.7ZM235.3 46.7L232.7 60.1H235.9L238 49.6H242.4L243 46.7H235.3ZM244.5 46.7L241.9 60.1H245.1L252.7 51.7L251.1 60.1H254.3L256.9 46.7H253.7L246.1 55.1L247.7 46.7H244.5Z" fill="#5B8061"/>
</svg>
