<svg width="138" height="67" viewBox="0 0 138 67" fill="none" xmlns="http://www.w3.org/2000/svg">
<path d="M0 66.961H66.7638V0H0V66.961Z" fill="#0043FA"/>
<path d="M135.923 0H71.0762V66.961H138V0H135.923Z" fill="#0043FA"/>
<path d="M75.0693 62.9658H133.847V3.99536H75.0693V62.9658Z" fill="white"/>
<path d="M6.06934 36.7567V50.6604H8.30544V46.6651C8.78461 46.9847 9.26377 47.3043 9.74294 47.3043C10.5415 47.3043 11.1804 46.9846 11.6596 46.1856C12.1388 45.2267 12.4582 43.9482 12.4582 42.1903C12.4582 41.0716 12.2985 39.9529 11.8193 38.994V38.8342V38.6745V38.5146V38.3548V38.195L11.6596 38.0352V37.8754V37.7155L11.4999 37.5558V37.3959L11.3402 37.2361H11.1804L11.0207 37.0764H10.861H10.7013H10.5415H10.3818H10.2221H10.0624H9.90266H9.74294H9.58322H9.42349H9.26377H9.10405H8.94433H8.78461H8.62489H8.46516H8.30544H8.14572H7.986H6.06934V36.7567ZM8.30544 38.6745H8.46516C9.10405 38.6745 9.42349 38.9941 9.74294 39.6333C10.0624 40.2726 10.2221 41.2315 10.2221 42.6698C10.2221 43.4688 10.0624 43.9482 9.90266 44.4277C9.74294 44.9071 9.42349 45.067 9.10405 45.067C8.78461 45.067 8.62489 44.9071 8.46516 44.5874C8.30544 44.2678 8.14572 43.7884 8.14572 42.9893V38.6745H8.30544Z" fill="white"/>
<path d="M60.2155 35.9576L60.0558 36.1174C60.0558 36.1174 55.2641 41.0716 54.9447 41.5511V36.5968H52.5488V50.5005H54.7849V44.7473C54.7849 44.7473 57.6599 41.551 58.1391 41.2314C58.1391 41.7108 58.4585 50.5005 58.4585 50.5005H60.6946L60.2155 35.9576Z" fill="white"/>
<path d="M49.1944 36.1174L49.0347 36.2773H48.875L48.7153 36.437L48.5556 36.5968L48.3958 36.7567L48.2361 36.9165L48.0764 37.0763L47.9167 37.2361L47.7569 37.3959L47.5972 37.7155L47.4375 38.0352L46.9583 38.5146L46.7986 38.8342L46.6389 38.994L46.4792 39.1539L46.3194 39.3136L46.1597 39.4735L46 39.6333L45.8403 39.793L45.6806 39.9529L45.5208 40.1127H45.3611V40.2726V35.3183H43.125V49.222H45.3611V43.4688C45.3611 43.4688 48.2361 40.2725 48.5556 39.9529C48.5556 40.4324 48.875 49.222 48.875 49.222H51.1111L50.6319 34.5193L49.1944 36.1174Z" fill="white"/>
<path d="M36.0974 47.1444L35.9377 46.9845L35.7779 46.8248L35.6182 46.665L35.4585 46.5051L35.2988 46.3453L35.139 46.1855L34.9793 46.0257V45.8659V45.7061V45.5463V45.3864V45.0669V44.7472V44.4276V44.1079V43.7883C34.9793 42.35 35.2988 41.2314 36.0974 40.2725C36.896 39.3137 38.014 38.8342 39.4515 38.8342H39.6113V36.437H39.4515C37.2154 36.437 35.4585 37.0762 34.1807 38.5145C33.0627 39.793 32.5835 41.5509 32.5835 43.7883C32.5835 45.8659 33.2224 47.6239 34.3404 49.0622C35.6182 50.5005 37.2154 51.1397 39.4515 51.1397H39.6113V48.7425H39.4515C38.014 48.5827 36.896 48.1033 36.0974 47.1444Z" fill="white"/>
<path d="M18.0487 36.2772C16.7709 36.2772 15.8126 36.9164 15.1737 38.3548C14.5348 39.6332 14.2153 41.3912 14.2153 43.6285C14.2153 45.8659 14.5348 47.6238 15.1737 48.9023C15.8126 50.1808 16.7709 50.9798 18.0487 50.9798C19.3265 50.9798 20.4445 50.1808 21.0834 48.9023C21.7223 47.6238 22.0417 45.8659 22.0417 43.6285C22.0417 41.551 21.7223 39.7931 20.9237 38.3548V38.1949V38.0351V37.8753L20.764 37.7155V37.5557L20.6042 37.3958V37.2361V37.0763V36.9164L20.4445 37.2361H20.2848H20.1251H19.9653H19.8056H19.6459H19.4862H19.3265H19.1667H19.007H18.8473H18.6876H18.5278H18.3681H18.2084H18.5278H18.3681H18.2084H18.0487V36.2772ZM18.0487 38.5145C18.6876 38.5145 19.1667 38.994 19.4862 39.9529C19.8056 40.7519 19.8056 42.0304 19.8056 43.6285C19.8056 45.0668 19.6459 46.3453 19.3265 47.3042V47.464C18.8473 47.464 18.3681 46.9846 18.0487 46.0257C17.7292 45.0668 17.5695 43.7883 17.5695 42.35C17.5695 40.9117 17.7292 39.6333 18.0487 38.6744C17.0903 38.994 17.5695 38.5145 18.0487 38.5145Z" fill="white"/>
<path d="M27.4718 47.1444L27.3121 46.9845V46.8247L27.1524 46.665L26.9927 46.5051V46.1855L26.833 46.0257L26.6732 45.8659L26.5135 45.706V45.5463V45.3864V45.2266V44.907V44.5873V44.2678V43.9482V43.6285C26.5135 42.1902 26.833 41.0715 27.6316 40.1126C28.4302 39.1538 29.5482 38.6744 30.9857 38.6744H31.1455V36.2772H30.9857C28.7496 36.2772 26.9927 36.9164 25.7149 38.3548C24.5968 39.6332 24.1177 41.3912 24.1177 43.6285C24.1177 45.7061 24.7566 47.464 25.8746 48.9023C27.1524 50.3406 28.7496 50.9798 30.9857 50.9798H31.1455V48.5826H30.9857C29.3885 48.5826 28.2705 48.1033 27.4718 47.1444Z" fill="white"/>
<path d="M6.229 16.1409V30.2043H8.78456V18.538H11.979V30.2043H14.5346V16.1409H6.229Z" fill="white"/>
<path d="M22.5205 15.8213C21.083 15.8213 20.1247 16.4606 19.3261 17.8989C18.5275 19.1774 18.208 20.9353 18.208 23.1727C18.208 25.41 18.5275 27.1679 19.3261 28.6062C20.1247 29.8847 21.2427 30.6838 22.6802 30.6838C24.1177 30.6838 25.2358 30.0445 26.1941 28.6062C26.9927 27.3277 27.3122 25.5698 27.3122 23.3325C27.3122 21.0951 26.833 19.3372 26.0344 18.0587V17.8989V17.739V17.5793L25.8747 17.4194V17.2596L25.3955 17.0999V16.94L25.2358 16.7802L25.0761 16.6203L24.9163 16.4606H24.7566H24.5969H24.4372H24.2774H24.1177H23.958H23.7983H23.6386H23.4788H23.3191H23.1594H22.9997H22.8399H22.6802H22.5205H22.3608H22.2011H22.8399H22.6802L22.5205 15.8213ZM22.5205 18.2185C23.1594 18.2185 23.6386 18.698 24.1177 19.497C24.4372 20.2961 24.5969 21.5745 24.5969 23.0128C24.5969 24.4511 24.4372 25.7297 24.1177 26.6886C23.7983 27.6474 23.3191 27.967 22.6802 27.967V27.8072C22.3608 26.8483 22.2011 25.5698 22.2011 24.1315C22.2011 22.6932 22.3608 21.4147 22.6802 20.4559C21.4025 18.6979 21.8816 18.2185 22.5205 18.2185Z" fill="white"/>
<path d="M41.0488 16.1409V18.538H43.2849V30.2043H45.8405V18.538H48.0766V16.1409H41.0488Z" fill="white"/>
<path d="M35.4584 21.0951H34.0209C33.382 21.0951 33.0626 20.9353 32.7432 20.7755C32.5834 20.6157 32.4237 20.2961 32.4237 19.9764V16.3008H29.8682V20.2961C29.8682 21.2549 30.1876 22.054 30.9862 22.6932C31.6251 23.3325 32.5834 23.6521 33.5418 23.6521H35.4584V30.3642H38.014V16.3008H35.4584V21.0951Z" fill="white"/>
<path d="M51.4303 16.141L50.9512 30.2044H53.5067C53.5067 30.2044 53.6664 23.6521 53.8262 23.3325H57.0206C57.0206 23.6521 57.8192 30.2044 57.8192 30.2044H60.3748L59.097 19.9765V19.8166V19.6569V19.4971V19.3372V19.1774V19.0176V18.8578V18.698V18.5381V18.3784V18.2185V18.0587V17.899V17.7391V17.5793V17.4194V17.2597V17.0999V16.94V16.7803H58.9373C58.2984 16.3008 57.34 15.9812 56.222 15.9812H51.4303V16.141ZM53.8262 18.5381H54.7845C55.4234 18.5381 55.9026 18.698 56.222 19.1774C56.3817 19.4971 56.5414 20.1363 56.7012 21.0952H53.8262V20.9353V20.7756V20.6157V20.4559V20.2961V20.1363V19.9765V19.8166V19.6569V19.4971V19.3372V19.1774V19.0176V18.5381Z" fill="white"/>
<path d="M91.3609 21.7344L91.5206 21.8942L91.6803 22.054L91.8401 22.2138L91.9998 22.3737V22.5334L92.1595 22.6933V22.8531L92.3192 23.0129L92.479 23.1727L92.6387 23.3325L92.7984 23.4924L92.9581 23.6521L93.1178 23.8119L93.2776 23.9718L93.4373 24.1316L93.597 24.2914L93.7567 24.4512L93.9165 24.611L94.0762 24.7708L94.2359 24.9306L94.3956 25.0905L94.5553 25.2503L94.7151 25.41L94.8748 25.5699L95.0345 25.7297L95.1942 25.8895L95.354 26.0493L95.5137 26.2091C95.9928 26.5287 96.6317 27.3278 96.1526 28.2867C95.6734 29.2456 95.0345 30.6839 95.354 31.1633C95.8331 31.6427 97.4303 31.9624 98.8679 31.483C98.8679 31.483 99.1873 32.282 99.6665 32.9212C99.6665 32.9212 99.347 33.4007 98.7081 33.0811C98.7081 33.0811 99.0276 33.7203 98.5484 34.5193C98.5484 34.5193 97.5901 34.3595 97.2706 33.5605C97.2706 33.5605 96.9512 34.1997 96.1526 34.5193C96.1526 34.5193 95.5137 34.1998 95.6734 33.0811C95.6734 33.0811 95.1942 34.1997 93.9165 34.3595C93.9165 34.3595 93.1178 33.4006 94.2359 32.1221C94.2359 32.1221 93.4373 32.7614 92.1595 32.4418C92.1595 32.4418 91.9998 31.8025 93.1178 30.8437C93.1178 30.8437 91.8401 30.8437 91.2012 29.5652C91.2012 29.5652 91.8401 28.926 93.1178 29.0858C93.1178 29.0858 91.8401 28.7661 91.5206 27.168C91.5206 27.168 92.479 26.5288 93.9165 27.4877C93.9165 27.4877 93.597 27.0082 92.9581 26.5287C91.8401 25.0904 91.0414 23.6521 91.3609 21.7344Z" fill="#0043FA"/>
<path d="M96.7916 37.3959L96.6318 37.2361C96.7916 39.1538 96.9513 40.4323 97.9096 41.7108C97.9096 41.7108 98.5485 40.9117 98.0693 38.8342C97.9096 38.8342 97.7499 38.6744 97.5902 38.5146C97.5902 38.5146 97.9096 39.3136 97.7499 40.1127C97.4304 39.6332 97.111 39.3136 96.7916 37.3959Z" fill="#0043FA"/>
<path d="M95.0344 37.2361L94.8746 37.0763C94.7149 38.195 94.5552 41.0715 95.5135 42.0304C95.5135 42.0304 96.1524 41.5509 96.4719 37.3958C96.3121 37.5557 96.1524 37.8753 95.9927 38.0351C95.9927 38.0351 96.1524 39.3137 95.6733 40.2725C95.1941 39.6333 94.7149 39.1538 95.0344 37.2361Z" fill="#0043FA"/>
<path d="M92.7988 39.4736L92.9585 39.3137V39.1539V38.9941V38.8343V38.6745V38.5147V38.3549V38.195V38.0352V37.8755V37.7156L93.1183 37.396V37.2362V37.0764V36.9165V36.7568V36.5969V36.4371V36.2774V36.1175V35.9577V35.7978V35.6381V35.4783C93.278 35.4783 93.278 35.3185 93.4377 35.1586C93.4377 35.1586 93.5974 35.1586 93.5974 34.9988C93.5974 35.1586 93.5974 35.1586 93.5974 35.3184C93.4377 37.0763 93.278 38.8343 92.7988 39.7931C92.3197 40.752 91.2016 41.0717 91.2016 41.0717C90.2433 39.4736 91.3613 37.2362 92.3197 35.6381C92.4794 35.6381 92.6391 35.4783 92.6391 35.4783C93.1183 36.9166 92.4794 38.3549 92.7988 39.4736Z" fill="#0043FA"/>
<path d="M90.4028 34.3595V34.5193C90.4028 34.5193 90.4028 34.5194 90.4028 34.6792C89.6042 35.4782 89.125 36.1174 87.8472 37.7155C86.7292 39.3136 84.8125 39.3136 84.8125 39.3136C84.9722 38.0352 85.2917 36.9165 86.25 35.9577C87.2083 34.839 88.4861 33.8801 89.4444 33.2408C89.7639 33.4007 89.9236 33.4006 90.4028 33.4006C90.4028 33.4006 90.4028 33.4006 90.5625 33.4006C90.4028 33.5604 90.4028 33.7203 90.2431 33.8801C89.6042 34.1997 87.5278 35.3184 86.7292 36.9165C86.8889 37.0763 88.1667 36.7567 90.4028 34.3595Z" fill="#0043FA"/>
<path d="M88.9652 32.7614C89.1249 32.6016 89.1249 32.6016 89.1249 32.4418C88.3263 32.7614 85.6111 33.7202 84.8124 34.1997C84.0138 34.6791 82.7361 35.638 82.0972 37.7155C82.0972 37.7155 83.8541 37.8753 85.4513 36.5968C86.8888 35.3183 88.6458 33.7203 89.4444 33.0811L89.2847 32.9212C89.2847 32.9212 87.2083 34.6792 85.1319 35.4782C85.1319 35.4782 85.6111 34.6791 86.4097 34.0399C87.368 33.4006 88.0069 33.081 88.9652 32.7614Z" fill="#0043FA"/>
<path d="M87.5276 31.4829V31.323C86.5693 31.4828 84.4929 31.8024 83.3748 32.1221C82.4165 32.4417 80.6596 33.081 79.5415 35.1585C79.5415 35.1585 81.1387 35.6379 84.0137 34.1996C86.8887 32.7613 87.847 32.6015 88.4859 32.4417C88.0068 32.4417 87.6873 32.2819 87.5276 32.1221C86.4096 32.6015 84.8123 33.2408 83.2151 33.2408C83.2151 33.2408 84.0137 32.7613 84.8123 32.4417C85.7707 31.9623 86.729 31.6427 87.5276 31.4829Z" fill="#0043FA"/>
<path d="M87.528 30.0446L87.6878 30.2043C87.528 30.3641 87.3683 30.524 87.0489 30.6838C85.9308 31.0035 84.1739 31.3231 81.2989 31.4829C78.4239 31.6427 76.8267 31.1633 76.8267 31.1633C77.785 30.524 79.3822 29.8847 80.5003 29.7249C81.6183 29.5651 84.4933 29.5651 85.7711 29.4053C85.7711 29.4053 85.9308 29.5651 86.2503 29.7249C85.1322 29.8847 82.8961 29.8847 81.778 30.524C82.5767 30.524 84.653 30.8436 87.528 30.0446Z" fill="#0043FA"/>
<path d="M87.368 28.2867L87.5277 28.1268C86.0902 27.6473 84.0138 27.0081 80.9791 26.8483C78.743 26.6885 77.1458 26.8483 76.3472 27.0081C76.3472 27.0081 78.4236 28.4464 80.6597 28.9258C83.0555 29.4053 84.8124 29.0857 86.2499 29.0857C86.4097 28.9259 86.4097 28.766 86.5694 28.6062C84.9722 28.6062 82.2569 28.1268 81.2986 27.8071C81.618 27.967 84.0138 27.4876 87.368 28.2867Z" fill="#0043FA"/>
<path d="M87.3681 26.6886V26.8484H87.5278H87.6875H87.8473C85.7709 25.8895 81.7778 25.4101 79.5417 24.4512C76.6667 23.1727 76.0278 21.7344 76.0278 21.7344C78.5834 21.7344 80.6598 22.3736 82.257 22.8531C84.1737 23.4923 86.8889 24.4512 88.007 24.9306C87.6876 24.9306 87.2084 25.0905 86.8889 25.2503C85.4514 24.7708 84.8126 24.4512 83.5348 24.1316C82.5764 23.8119 81.7778 23.8119 81.1389 23.8119C81.1389 23.8119 82.0973 24.4512 83.5348 24.9306C85.4514 26.3689 86.0903 26.369 87.3681 26.6886Z" fill="#0043FA"/>
<path d="M87.2082 24.4511L87.368 24.6109C84.1735 24.1315 80.4999 21.5745 79.3819 20.1362C78.2638 18.5381 78.5833 16.3008 78.5833 16.3008C79.7013 16.4606 81.9374 18.5381 82.5763 19.1774C83.2152 19.8166 84.9721 21.5745 86.2499 22.5334L86.5694 23.6521C85.4513 22.853 84.1735 21.7343 83.3749 21.2549C82.736 20.7755 81.7777 20.1362 80.9791 19.8166C80.9791 19.8166 81.7777 20.9352 82.5763 21.4147C83.3749 22.0539 84.1735 22.5334 84.8124 23.0128C85.611 23.652 85.9305 23.8119 87.2082 24.4511Z" fill="#0043FA"/>
<path d="M96.3125 33.5604L96.4722 33.4005C96.6319 33.5603 97.1111 34.1996 97.4306 34.8389C97.5903 35.3183 97.75 36.1174 97.9097 36.437C98.0694 36.9164 98.2292 37.7155 98.5486 38.0351C98.5486 38.0351 97.75 38.1949 97.1111 37.3958C96.4722 36.7566 96.3125 36.1173 96.3125 35.3183C96.3125 34.8388 96.3125 34.0398 96.3125 33.5604Z" fill="#0043FA"/>
<path d="M95.0349 33.5604L95.1947 33.7202H95.3544H95.5141C95.6738 33.7202 95.6738 33.7202 95.8335 33.5604C95.9933 33.88 95.9933 34.0399 95.9933 34.3595C95.9933 34.6791 96.153 35.3183 95.9933 35.7977C95.8335 36.437 95.5141 36.7566 95.3544 36.9164C95.3544 36.9164 94.8752 36.2772 94.7155 35.7977C94.5558 35.3183 94.5558 34.679 94.7155 34.1996C94.7155 34.0398 94.8752 33.7202 95.0349 33.5604Z" fill="#0043FA"/>
<path d="M93.2774 33.7202H93.4371H93.5969H93.7566H93.9163H94.076H94.2357H94.3955H94.5552C94.5552 33.88 94.7149 34.1997 94.7149 34.5193C94.5552 34.8389 94.3955 35.3184 94.076 35.638C93.5969 36.1174 92.7982 36.4371 91.9996 36.2773C91.8399 35.7978 91.6802 35.1585 93.2774 33.7202Z" fill="#0043FA"/>
<path d="M92.6386 32.7614V32.9212C92.4788 33.081 91.84 34.3596 90.4025 34.0399C90.4025 34.0399 90.083 33.2408 90.8816 32.6016C91.9997 32.9212 92.3191 32.7614 92.6386 32.7614Z" fill="#0043FA"/>
<path d="M92.7985 31.6427H92.6388H92.479H92.3193H92.1596H91.9999H91.8402H91.6804H91.5207H91.361V31.4829C90.7221 32.1222 89.7638 32.1221 89.4443 32.7614C89.4443 32.7614 89.7638 33.4006 90.7221 33.2408C91.6804 33.081 92.3193 32.7614 92.7985 32.1221C92.7985 31.9623 92.7985 31.8025 92.7985 31.6427Z" fill="#0043FA"/>
<path d="M91.2015 30.8437L91.3613 30.6839C90.7224 30.5241 90.2432 30.5241 89.4446 30.6839C88.646 30.8438 87.6877 31.0036 87.2085 32.2821C87.2085 32.2821 87.6877 32.7614 88.8057 32.6016C90.0835 31.8026 90.7224 31.483 91.2015 30.8437Z" fill="#0043FA"/>
<path d="M90.882 29.4052L90.7223 29.2454V29.0857C89.9237 28.766 89.1251 28.6062 88.4862 28.9258C87.6876 29.2454 87.5279 29.5651 87.3682 29.8847C87.3682 29.8847 88.1668 30.524 89.1251 30.6838C89.6043 30.0445 90.4029 29.7248 90.882 29.4052Z" fill="#0043FA"/>
<path d="M91.0418 27.9671H91.2015C90.882 27.6475 90.5626 27.168 90.4029 26.5288C90.0834 26.5288 89.2848 26.5288 88.9654 26.5288C88.6459 26.369 87.8473 26.369 87.3682 26.6887C87.3682 26.6887 87.5279 27.6475 88.8057 27.9671C90.2432 28.1269 90.5626 28.1269 91.0418 27.9671Z" fill="#0043FA"/>
<path d="M90.5623 26.0493L90.722 25.8896C90.722 25.8896 91.0415 25.7297 91.5206 25.7297C91.0415 25.4101 90.0831 24.6111 89.4442 24.2914C88.6456 23.812 87.5276 23.3325 86.8887 23.1727C86.8887 23.1727 87.5276 24.7708 88.1664 25.2503C88.9651 26.0493 89.4442 26.2091 90.5623 26.0493Z" fill="#0043FA"/>
<path d="M91.8402 25.4101L91.6805 25.2503V25.0906V24.9307V24.7709V24.611V24.4513V24.2915V24.1316V23.9719V23.812V23.6522V23.4924V23.3326V23.1728C91.5207 22.6934 91.2013 21.4149 91.0416 21.0953C90.8818 20.7756 90.243 19.6569 88.8054 19.3373C88.8054 19.3373 88.486 20.7756 89.1249 22.0541C89.2846 23.6522 90.4027 24.611 91.8402 25.4101Z" fill="#0043FA"/>
<path d="M99.3475 32.282L99.5073 32.4418C99.5073 32.4418 99.9864 33.2408 99.3475 34.1996C98.8684 35.1585 98.3892 36.2773 98.2295 36.7567C98.2295 36.7567 97.91 36.7567 97.5906 35.1586C97.4309 34.0399 97.1114 33.8801 96.792 33.5605C97.1114 33.7203 97.2712 33.7202 97.4309 33.7202H97.5906L97.7503 33.5605C97.91 33.2408 97.91 32.9212 97.91 32.6015C97.91 32.4417 97.91 32.4418 97.91 32.282C98.8684 32.6016 99.1878 32.4418 99.3475 32.282C99.1878 32.282 99.1878 32.282 99.3475 32.282Z" fill="#0043FA"/>
<path d="M88.007 20.456V20.6157V20.9354C87.2084 19.9765 86.2501 18.6981 85.2918 17.5794C84.6529 16.7803 84.1737 16.3009 83.5348 15.9813C84.014 17.4196 84.9723 18.5383 85.4515 19.1775C86.0904 19.8167 86.889 20.7756 87.8473 21.255L88.007 21.5747C88.007 21.8943 88.1668 22.0541 88.3265 22.3737C88.4862 22.6934 88.8057 23.013 89.1251 23.4924C88.8057 23.3326 88.6459 23.1728 88.3265 23.1728L88.007 23.0129C85.6112 21.7344 83.2154 19.0177 82.2571 17.2597C81.2987 15.342 81.6182 13.2644 81.9376 12.1458C83.0557 13.1046 84.6529 14.8625 85.2918 15.8214C86.2501 17.2597 87.2084 19.0177 88.007 20.456Z" fill="#0043FA"/>
<path d="M121.708 28.2867L121.548 28.1268C122.986 27.6473 125.062 27.0081 128.097 26.8483C130.333 26.6885 131.93 26.8483 132.729 27.0081C132.729 27.0081 130.653 28.4464 128.416 28.9258C126.18 29.4053 124.264 29.0857 122.826 29.0857C122.666 28.9259 122.666 28.766 122.507 28.6062C124.104 28.6062 126.819 28.1268 127.778 27.8071C127.298 27.967 125.062 27.4876 121.708 28.2867Z" fill="#0043FA"/>
<path d="M121.708 26.6886V26.8483H121.549H121.389H121.229H121.07C123.146 25.8895 127.139 25.41 129.375 24.4511C131.931 24.4511 132.41 22.853 132.41 22.853C129.854 22.853 127.778 23.4923 126.181 23.9717C124.264 24.611 121.549 25.5698 120.431 26.0493C120.75 26.0493 121.229 26.2091 121.549 26.3689C122.986 25.8895 123.625 25.5698 124.903 25.2502C125.861 24.9306 126.66 24.9306 127.299 24.9306C127.299 24.9306 126.5 25.5698 125.063 26.0493C123.465 26.3689 122.986 26.3689 121.708 26.6886Z" fill="#0043FA"/>
<path d="M121.868 24.4511L121.708 24.6109C124.902 24.1315 128.576 21.5745 129.694 20.1362C130.812 18.5381 130.493 16.3008 130.493 16.3008C129.375 16.4606 127.139 18.5381 126.5 19.1774C125.861 19.8166 124.104 21.5745 122.826 22.5334L122.507 23.6521C123.625 22.853 124.902 21.7343 125.701 21.2549C126.34 20.7755 127.298 20.1362 128.097 19.8166C128.097 19.8166 127.298 20.9352 126.5 21.4147C125.701 22.0539 124.902 22.5334 124.264 23.0128C123.465 23.652 123.146 23.8119 121.868 24.4511Z" fill="#0043FA"/>
<path d="M121.069 20.456V20.6157V20.9354C121.868 19.9765 122.826 18.6981 123.625 17.5794C124.264 16.7803 124.743 16.3009 125.382 15.9813C124.903 17.4196 123.944 18.5383 123.465 19.1775C122.826 19.8167 122.028 20.7756 121.069 21.255L120.91 21.5747C120.75 21.8943 120.75 22.0541 120.59 22.3737C120.43 22.6934 120.111 23.013 119.792 23.4924C120.111 23.3326 120.271 23.1728 120.59 23.1728L120.91 23.0129C123.305 21.7344 125.701 19.0177 126.66 17.2597C127.618 15.342 127.298 13.2644 126.979 12.1458C125.861 13.1046 124.264 14.8625 123.625 15.8214C122.826 17.2597 121.868 19.0177 121.069 20.456Z" fill="#0043FA"/>
<path d="M91.0416 34.9987L90.8819 35.1586L90.7222 35.3184L90.5624 35.4783L90.4027 35.638L90.243 35.7978L90.0833 35.9577L89.9236 36.1174L89.7638 36.2773L89.6041 36.4371L89.4444 36.5969L89.2847 36.7567L89.125 36.9165L88.9652 37.0764L89.2847 37.2361L89.125 37.3959L88.9652 37.5558L88.8055 37.7155L88.6458 37.8754L88.4861 38.0352L88.3263 38.195L88.1666 38.3548L88.0069 38.5146L87.8472 38.6745V38.8342V38.994V39.1539V39.3137V39.4735V39.6333V39.7931V39.9529C87.8472 39.9529 89.7638 39.3137 90.5624 37.8754C91.3611 36.4371 91.8402 35.4782 92.1597 35.1586C91.9999 35.1586 91.6805 35.1586 91.5208 35.1586H91.3611C90.8819 36.1175 89.9236 37.5558 88.9652 38.0352C88.9652 38.0352 88.8055 36.7567 91.3611 34.3596C91.3611 34.1997 91.5208 34.1997 91.5208 34.0399C91.6805 34.9988 91.3611 34.9987 91.0416 34.9987Z" fill="#0043FA"/>
<path d="M117.715 21.7344L117.555 21.8942L117.396 22.054L117.236 22.2138L117.076 22.3737V22.5334V22.6933L116.917 22.8531L116.757 23.0129L116.597 23.1727L116.437 23.3325L116.278 23.4924L116.118 23.6521L115.958 23.8119L115.799 23.9718L115.639 24.1316L115.479 24.2914L115.319 24.4512L115.16 24.611L115 24.7708L114.84 24.9306L114.681 25.0905L114.521 25.2503L114.361 25.41L114.201 25.5699L114.042 25.7297L113.882 25.8895L113.722 26.0493L113.562 26.2091C113.083 26.5287 112.444 27.3278 112.924 28.2867C113.403 29.2456 114.042 30.6839 113.722 31.1633C113.243 31.6427 111.646 31.9624 110.208 31.483C110.208 31.483 109.889 32.282 109.41 32.9212C109.41 32.9212 109.729 33.4007 110.368 33.0811C110.368 33.0811 110.049 33.7203 110.528 34.5193C110.528 34.5193 111.486 34.3595 111.806 33.5605C111.806 33.5605 112.125 34.1997 112.924 34.5193C112.924 34.5193 113.562 34.1998 113.403 33.0811C113.403 33.0811 113.882 34.1997 115.16 34.3595C115.16 34.3595 115.958 33.4006 114.84 32.1221C114.84 32.1221 115.639 32.7614 116.917 32.4418C116.917 32.4418 117.076 31.8025 115.958 30.8437C115.958 30.8437 117.236 30.8437 117.875 29.5652C117.875 29.5652 117.236 28.926 115.958 29.0858C115.958 29.0858 117.236 28.7661 117.555 27.168C117.555 27.168 116.597 26.5288 115.16 27.4877C115.16 27.4877 115.479 27.0082 116.118 26.5287C117.236 25.0904 117.875 23.6521 117.715 21.7344Z" fill="#0043FA"/>
<path d="M112.285 37.3959L112.444 37.2361C112.285 39.1538 112.125 40.4323 111.167 41.7108C111.167 41.7108 110.528 40.9117 111.007 38.8342C111.167 38.8342 111.326 38.6744 111.486 38.5146C111.486 38.5146 111.326 39.3136 111.326 40.1127C111.646 39.6332 111.965 39.3136 112.285 37.3959Z" fill="#0043FA"/>
<path d="M114.042 37.2361L114.201 37.0763C114.361 38.195 114.521 41.0715 113.562 42.0304C113.562 42.0304 112.923 41.5509 112.604 37.3958C112.764 37.5557 112.923 37.8753 113.083 38.0351C113.083 38.0351 112.923 39.3137 113.403 40.2725C113.882 39.6333 114.361 39.1538 114.042 37.2361Z" fill="#0043FA"/>
<path d="M116.278 39.4736L116.118 39.3137V39.1539V38.9941V38.8343V38.6745V38.5147V38.3549V38.195V38.0352V37.8755V37.7156V37.396V37.2362V37.0764V36.9165V36.7568V36.5969V36.4371V36.2774V36.1175V35.9577V35.7978V35.6381V35.4783C115.958 35.4783 115.958 35.3185 115.798 35.1586C115.798 35.1586 115.639 35.1586 115.639 34.9988C115.639 35.1586 115.639 35.1586 115.639 35.3184C115.798 37.0763 115.958 38.8343 116.437 39.7931C116.916 40.752 118.034 41.0717 118.034 41.0717C118.993 39.4736 117.875 37.2362 116.916 35.6381C116.757 35.6381 116.757 35.4783 116.597 35.4783C115.958 36.9166 116.597 38.3549 116.278 39.4736Z" fill="#0043FA"/>
<path d="M118.673 34.3595V34.5193C118.673 34.5193 118.673 34.5194 118.673 34.6792C119.472 35.4782 119.951 36.1174 121.229 37.7155C122.347 39.3136 124.264 39.3136 124.264 39.3136C124.104 38.0352 123.785 36.9165 122.666 35.9577C121.708 34.839 120.43 33.8801 119.472 33.2408C119.153 33.4007 118.993 33.4006 118.514 33.4006C118.514 33.4006 118.514 33.4006 118.354 33.4006C118.514 33.5604 118.514 33.7203 118.673 33.8801C119.312 34.1997 121.389 35.3184 122.187 36.9165C122.187 37.0763 120.91 36.7567 118.673 34.3595Z" fill="#0043FA"/>
<path d="M120.111 32.7614C119.951 32.6016 119.951 32.6016 119.951 32.4418C120.75 32.7614 123.305 33.7202 124.264 34.1997C125.062 34.6791 126.34 35.638 127.139 37.7155C127.139 37.7155 125.382 37.8753 123.785 36.5968C122.347 35.3183 120.59 33.7203 119.792 33.0811C119.951 33.0811 119.951 32.9212 119.951 32.9212C119.951 32.9212 122.028 34.6792 124.104 35.4782C124.104 35.4782 123.625 34.6791 122.826 34.0399C121.708 33.4006 120.91 33.081 120.111 32.7614Z" fill="#0043FA"/>
<path d="M121.549 31.4829L121.389 31.323C122.188 31.4828 124.424 31.8024 125.542 32.1221C126.5 32.4417 128.257 33.081 129.375 35.1585C129.375 35.1585 127.778 35.6379 124.903 34.1996C122.028 32.7613 121.07 32.6015 120.431 32.4417C120.91 32.4417 121.229 32.2819 121.389 32.1221C122.507 32.6015 124.104 33.2408 125.701 33.2408C125.701 33.2408 124.903 32.7613 124.104 32.4417C123.306 31.9623 122.347 31.6427 121.549 31.4829Z" fill="#0043FA"/>
<path d="M121.548 30.0445H121.389C121.548 30.2043 121.868 30.3641 122.028 30.5239C122.986 30.8436 124.743 31.1632 127.778 31.323C130.653 31.4828 132.25 31.0034 132.25 31.0034C131.291 30.3641 129.694 29.7249 128.576 29.5651C127.458 29.4053 124.583 29.4053 123.305 29.2455C123.305 29.2455 123.146 29.4053 122.826 29.5651C123.944 29.7249 126.18 29.7249 127.298 30.3642C126.5 30.524 124.423 30.8436 121.548 30.0445Z" fill="#0043FA"/>
<path d="M112.764 33.5604L112.604 33.4005C112.444 33.5603 111.965 34.1996 111.646 34.8389C111.486 35.3183 111.326 36.1174 111.167 36.437C111.007 36.9164 110.688 37.7155 110.528 38.0351C110.528 38.0351 111.326 38.1949 111.965 37.3958C112.604 36.7566 112.764 36.1173 112.764 35.3183C112.764 34.8388 112.764 34.0398 112.764 33.5604Z" fill="#0043FA"/>
<path d="M113.882 33.5604L113.722 33.7202H113.562H113.403C113.243 33.7202 113.243 33.7202 113.083 33.5604C112.924 33.88 112.924 34.0399 112.924 34.3595C112.924 34.6791 112.764 35.3183 112.924 35.7977C113.083 36.437 113.403 36.7566 113.562 36.9164C113.562 36.9164 114.042 36.2772 114.201 35.7977C114.361 35.3183 114.361 34.679 114.201 34.1996C114.201 34.0398 114.042 33.7202 113.882 33.5604Z" fill="#0043FA"/>
<path d="M115.799 33.7202H115.639H115.479H115.32H115.16H115H114.84H114.681H114.521C114.521 33.88 114.361 34.1997 114.361 34.5193C114.361 34.8389 114.681 35.3184 115 35.638C115.479 36.1174 116.278 36.4371 117.077 36.2773C117.077 35.7978 117.396 35.1585 115.799 33.7202Z" fill="#0043FA"/>
<path d="M116.278 32.7614V32.9212C116.438 33.081 117.076 34.3596 118.514 34.0399C118.514 34.0399 118.833 33.2408 117.875 32.6016C117.076 32.9212 116.757 32.7614 116.278 32.7614Z" fill="#0043FA"/>
<path d="M116.278 31.6427H116.438H116.597H116.757H116.917H117.076H117.236H117.396H117.556H117.715H117.875H118.035V31.4829C118.674 32.1222 119.632 32.1221 119.951 32.7614C119.951 32.7614 119.632 33.4006 118.674 33.2408C117.715 33.081 117.076 32.7614 116.597 32.1221C116.278 31.9623 116.278 31.8025 116.278 31.6427Z" fill="#0043FA"/>
<path d="M117.875 30.8437L117.715 30.6839C118.354 30.5241 118.833 30.5241 119.632 30.6839C120.431 30.8438 121.389 31.0036 121.868 32.2821C121.868 32.2821 121.389 32.7614 120.271 32.6016C118.993 31.8026 118.194 31.483 117.875 30.8437Z" fill="#0043FA"/>
<path d="M118.194 29.4052L118.354 29.2454V29.0857C119.153 28.766 119.951 28.6062 120.59 28.9258C121.389 29.2454 121.549 29.5651 121.708 29.8847C121.708 29.8847 120.91 30.524 119.951 30.6838C119.472 30.0445 118.514 29.7248 118.194 29.4052Z" fill="#0043FA"/>
<path d="M118.035 27.9671H117.875C118.194 27.6475 118.514 27.168 118.674 26.5288C118.993 26.5288 119.792 26.5288 120.111 26.5288C120.431 26.369 121.229 26.369 121.708 26.6887C121.708 26.6887 121.549 27.6475 120.271 27.9671C118.833 28.1269 118.514 28.1269 118.035 27.9671Z" fill="#0043FA"/>
<path d="M118.354 26.0493L118.195 25.8896C118.195 25.8896 117.875 25.7297 117.396 25.7297C117.875 25.4101 118.674 24.6111 119.472 24.2914C120.271 23.812 121.389 23.3325 122.028 23.1727C122.028 23.1727 121.389 24.7708 120.75 25.2503C120.111 26.0493 119.632 26.2091 118.354 26.0493Z" fill="#0043FA"/>
<path d="M117.236 25.4101L117.396 25.2503V25.0906V24.9307V24.7709V24.611V24.4513V24.2915V24.1316V23.9719V23.812V23.6522V23.4924V23.3326V23.1728C117.555 22.6934 117.875 21.4149 118.034 21.0953C118.194 20.7756 118.833 19.6569 120.271 19.3373C120.271 19.3373 120.59 20.7756 119.951 22.0541C119.791 23.6522 118.673 24.611 117.236 25.4101Z" fill="#0043FA"/>
<path d="M109.729 32.282L109.569 32.4418C109.569 32.4418 109.09 33.2408 109.729 34.1996C110.208 35.1585 110.688 36.2773 110.847 36.7567C110.847 36.7567 111.167 36.7567 111.486 35.1586C111.646 34.0399 111.965 33.8801 112.285 33.5605C111.965 33.7203 111.806 33.7202 111.646 33.7202H111.486L111.326 33.5605C111.167 33.2408 111.007 32.9212 111.007 32.6015C111.007 32.4417 111.007 32.4418 111.007 32.282C110.208 32.6016 109.889 32.4418 109.729 32.282Z" fill="#0043FA"/>
<path d="M118.034 34.9987L118.194 35.1586L118.354 35.3184L118.514 35.4783L118.673 35.638L118.833 35.7978L118.993 35.9577L119.153 36.1174L119.312 36.2773L119.472 36.4371L119.632 36.5969L119.791 36.7567L119.951 36.9165L120.111 37.0764L120.271 37.2361L120.43 37.3959L120.59 37.5558L120.75 37.7155L120.909 37.8754L121.069 38.0352L121.229 38.195L121.389 38.3548L121.548 38.5146V38.6745V38.8342V38.994V39.1539V39.3137V39.4735V39.6333V39.7931V39.9529C121.548 39.9529 119.632 39.3137 118.833 37.8754C118.034 36.4371 117.555 35.4782 117.236 35.1586C117.396 35.1586 117.715 35.1586 117.875 35.1586H118.034C118.514 36.1175 119.472 37.5558 120.43 38.0352C120.43 38.0352 120.59 36.7567 118.034 34.3596C118.034 34.1997 117.875 34.1997 117.875 34.0399C117.396 34.9988 117.715 34.9987 118.034 34.9987Z" fill="#0043FA"/>
<path d="M103.021 15.8213L103.181 15.6615H103.34H103.5H103.66C104.458 15.6615 105.257 15.8213 105.257 15.9811C105.257 16.1409 104.618 16.3008 103.66 16.3008C102.701 16.3008 103.021 15.9811 103.021 15.8213Z" fill="#0043FA"/>
<path d="M97.9097 17.5793L98.0694 17.4194C98.5486 17.4194 99.0277 17.5793 99.0277 17.5793C99.0277 17.7391 98.5486 17.7391 98.0694 17.7391C98.2291 17.7391 97.9097 17.5793 97.9097 17.5793Z" fill="#0043FA"/>
<path d="M104.777 16.4606V16.6204C104.618 16.6204 104.458 16.4607 104.458 16.3008C104.458 16.141 104.618 15.9812 104.777 15.9812C104.618 16.141 104.777 16.3008 104.777 16.4606Z" fill="#0043FA"/>
<path d="M102.861 15.5018L102.701 15.342V15.1822V15.0223V14.8625V14.7028V14.5429V14.3831V14.2233V14.0635V13.9037V13.7438V13.5841V13.4242V13.2644V13.1047C102.701 12.9448 102.861 12.785 103.18 12.785C103.34 12.785 103.5 12.6252 103.66 12.785C103.979 12.9448 104.139 14.5429 104.298 15.342C103.34 15.1821 103.18 15.342 102.861 15.5018Z" fill="#0043FA"/>
<path d="M103.82 15.1821H103.979H104.139C103.979 14.5429 103.82 13.4242 103.66 13.1046C103.5 12.6252 103.34 12.3055 103.021 12.3055C103.021 12.3055 103.181 12.9448 103.34 13.584C103.66 14.0635 103.66 14.5429 103.82 15.1821Z" fill="#0043FA"/>
<path d="M102.222 17.4194H102.382C102.382 16.7801 102.222 17.4194 102.222 17.4194Z" fill="#0043FA"/>
<path d="M103.021 17.2597L102.861 17.4194H102.701C102.861 17.0998 103.021 16.7802 103.5 16.4606C103.979 16.141 104.778 15.9812 105.097 15.9812C103.66 16.6204 103.34 17.0999 103.021 17.2597Z" fill="#0043FA"/>
<path d="M102.861 17.739C102.222 18.0586 100.465 18.0587 99.5072 18.0587H99.3474H99.1877H99.028H98.8683H98.7086C98.8683 20.1362 100.306 20.2961 100.306 20.2961C100.306 20.1363 100.306 19.8166 100.306 19.8166C100.785 20.296 101.743 20.6156 101.743 20.6156C101.743 20.296 101.584 20.1362 101.584 20.1362C101.903 20.296 102.222 20.2961 102.222 20.2961C102.222 19.9764 102.063 19.6568 102.063 19.6568C102.382 19.9764 102.702 19.9764 102.702 19.9764C102.702 19.8166 102.702 19.3371 102.702 19.3371C102.861 19.4969 103.021 19.9764 103.979 20.1362C104.778 20.296 105.097 19.8166 105.097 19.8166C104.299 19.8166 103.5 19.1774 103.5 19.1774C103.979 19.0175 104.139 18.6979 104.139 18.6979C103.82 18.5381 103.66 18.5381 103.66 18.5381C102.702 18.0586 102.861 17.739 102.861 17.739ZM100.146 18.5381C100.146 18.5381 98.8683 18.5381 98.8683 19.1774C98.7086 19.0175 98.5488 18.8577 98.5488 18.5381C98.5488 18.5381 99.3474 18.5381 100.146 18.5381Z" fill="#0043FA"/>
<path d="M97.4309 17.8988V18.0586V18.2184V18.3783V18.538V18.6979V18.8577C97.4309 18.8577 96.792 18.3782 96.792 18.0586C96.792 17.8988 96.792 17.739 97.4309 17.8988Z" fill="#0043FA"/>
<path d="M95.6736 18.3783C95.3542 18.3783 95.1944 18.5382 95.0347 18.698C94.7153 19.1774 94.875 19.9765 95.5139 20.2961C95.5139 20.2961 96.4722 19.497 97.5903 20.2961C97.5903 20.2961 97.9097 20.1363 98.3889 19.9765C98.0695 19.8166 97.2708 19.6568 97.1111 19.0175C96.1528 18.3783 95.9931 18.2185 95.6736 18.3783ZM96.3125 19.1774C96.4722 19.1774 96.6319 19.3372 96.6319 19.497C96.4722 19.497 96.4722 19.3372 96.4722 19.1774C95.9931 19.3372 96.1528 19.1774 96.3125 19.1774Z" fill="#0043FA"/>
<path d="M98.5485 20.1362L98.7082 20.2961C98.7082 20.2961 97.2707 20.2961 96.7915 21.5746C96.7915 21.5746 96.3123 20.7755 96.6318 20.2961C97.5901 20.2961 97.9096 20.1362 98.5485 20.1362Z" fill="#0043FA"/>
<path d="M100.146 20.4559H100.305C100.305 20.4559 100.305 20.1363 100.305 19.9764C100.465 19.9764 100.625 19.9764 100.784 20.1362C100.784 20.1362 101.264 21.2549 101.583 21.5746C101.583 21.5746 101.583 21.8941 101.423 22.2138C101.423 22.2138 101.104 21.5746 100.625 21.0951C100.944 20.9353 100.625 20.7755 100.146 20.4559Z" fill="#0043FA"/>
<path d="M98.8677 20.1362H99.0274H99.1871H99.3469H99.5066H99.6663C100.145 20.4559 100.465 20.9353 100.465 21.5746C100.465 21.5746 100.145 21.0951 99.6663 20.7755C99.826 21.0951 99.1871 20.6157 98.8677 20.1362Z" fill="#0043FA"/>
<path d="M98.8679 15.3419H99.0276C99.0276 15.5017 98.7082 16.141 98.5485 16.3008C98.3888 15.9812 98.0693 15.5017 98.0693 15.3419C98.3888 15.3419 98.7082 15.3419 98.8679 15.3419Z" fill="#0043FA"/>
<path d="M98.5483 17.0998V16.9399V16.7802V16.6203V16.4605V16.3007C98.3886 16.1409 98.0692 16.1409 97.9095 16.1409C97.7498 16.1409 97.59 16.3007 97.7498 16.4605C97.7498 16.6203 98.3886 17.5792 98.5483 17.739C98.2289 17.0997 98.2289 17.0998 98.5483 17.0998Z" fill="#0043FA"/>
<path d="M99.0273 17.0998V16.9399V16.7802V16.6203V16.4605V16.3007C99.1871 16.1409 99.5065 16.1409 99.6662 16.1409C99.8259 16.1409 99.9857 16.3007 99.8259 16.4605C99.8259 16.6203 99.1871 17.5792 99.0273 17.739C99.5065 17.0997 99.5065 17.0998 99.0273 17.0998Z" fill="#0043FA"/>
<path d="M99.5068 14.2232H99.0276V13.7438H98.7082V14.2232H98.229V14.5428H98.7082V15.1821H99.0276V14.5428H99.5068V14.2232Z" fill="#0043FA"/>
<path d="M93.7567 17.5793V17.4195C93.7567 17.0998 93.7567 16.9401 93.7567 16.7803C93.4373 16.9401 93.1178 16.94 92.6387 17.7391C92.6387 17.5793 93.4373 17.2597 93.7567 17.5793Z" fill="#0043FA"/>
<path d="M94.3959 18.8578V18.6981V18.5382V18.3784V18.2186V18.0588V17.899V17.7391C94.5556 17.2597 94.3959 16.4607 94.2362 15.9812C94.0764 15.5018 93.9167 15.1822 93.9167 14.7028C93.9167 14.7028 93.4376 14.8625 93.2778 15.0223C93.2778 15.5017 93.5973 16.141 93.757 16.4607C93.9167 16.7803 93.9167 17.2597 93.9167 17.5794C93.9167 17.899 94.0764 18.3784 94.3959 18.8578Z" fill="#0043FA"/>
<path d="M94.396 14.7028V14.5429C94.396 14.5429 95.0349 13.9036 95.6738 13.7438C95.9932 13.584 96.3127 13.9037 96.4724 13.9037C96.4724 13.9037 96.3127 13.9037 95.9932 14.0635C95.6738 14.3831 95.3543 14.7028 95.0349 14.7028C94.5557 14.8626 94.5557 14.8626 94.396 14.7028Z" fill="#0043FA"/>
<path d="M96.4722 13.9036L96.6319 14.0634C96.6319 14.383 96.3125 15.0223 96.1527 15.1821C95.993 15.5017 95.8333 15.8213 95.8333 16.1409C95.8333 16.3008 95.993 16.6204 96.1527 16.6204C96.1527 16.6204 95.3541 16.4605 95.1944 15.8213C95.0347 15.3419 95.3541 15.0223 95.5139 14.7027C95.6736 14.3831 95.993 13.9036 96.1527 13.584C96.4722 14.2232 96.4722 14.0634 96.4722 13.9036Z" fill="#0043FA"/>
<path d="M101.583 19.9764V20.1362V20.2961V20.4559V20.6156V20.7755V20.9353V21.0951V21.2549V21.4147V21.5746V21.7343V21.8942V22.054V22.2137C101.902 22.6932 102.062 23.3325 102.062 23.4923C102.062 23.4923 102.382 22.6932 102.222 22.054C102.701 20.9353 102.382 20.2961 101.583 19.9764Z" fill="#0043FA"/>
<path d="M102.542 20.1362H102.701C103.021 20.296 103.34 20.9353 103.5 21.5746C103.5 21.5746 102.861 21.4147 102.542 21.2549C103.021 21.0951 102.701 20.6157 102.542 20.1362Z" fill="#0043FA"/>
<path d="M99.5069 21.255H99.3472C99.3472 21.255 99.8263 21.4148 100.146 21.5746C100.305 21.7345 100.625 22.054 100.625 22.5335C100.785 23.1727 101.104 23.812 101.264 24.1316C101.104 23.6521 101.424 22.6933 101.583 22.6933C101.583 22.6933 101.104 22.3736 100.944 22.2138C100.305 21.8942 100.146 21.5746 99.5069 21.255Z" fill="#0043FA"/>
<path d="M102.063 22.6932L102.222 22.853V23.0128V23.1727C102.063 23.8119 101.584 24.1315 101.424 24.6109C101.424 24.6109 101.264 23.6521 101.264 22.853C101.424 23.1726 101.743 22.853 102.063 22.6932Z" fill="#0043FA"/>
<path d="M103.181 22.6932L103.34 22.853V23.0128V23.1727C103.5 23.6521 103.34 23.9717 103.181 24.1315C103.021 24.4511 102.701 24.7708 102.382 25.2502C102.382 25.2502 102.063 24.7708 101.903 24.4511C101.903 24.1315 101.903 23.6521 102.063 23.3324C102.701 24.2913 103.021 23.4923 103.181 22.6932Z" fill="#0043FA"/>
<path d="M103.5 26.3689L103.34 26.5287L103.181 26.6885V26.8483C103.021 27.1679 102.861 27.4875 103.181 27.8072C103.34 28.1268 103.819 28.6062 104.299 28.9259C104.299 28.9259 103.819 28.1268 103.819 27.6474C103.819 27.3278 104.139 26.8484 104.139 26.6885C103.66 27.0082 103.66 26.6885 103.5 26.3689Z" fill="#0043FA"/>
<path d="M102.222 25.8895L102.382 26.0493C102.382 26.3689 102.382 26.6886 102.222 27.168C102.062 27.8072 101.583 28.4465 101.424 28.7661C101.424 28.7661 101.104 28.2867 100.944 27.967C100.944 27.967 101.424 27.3278 101.743 26.8484C101.903 26.8484 102.062 26.369 102.222 25.8895Z" fill="#0043FA"/>
<path d="M101.903 25.5699V25.7297V25.8896V26.0494V26.2091V26.369V26.5288V26.6886V26.8484V27.0082V27.1681V27.3278V27.4877V27.6475V27.8072V27.9671V28.1269V28.2868V28.4465L101.743 28.6063V28.7662L101.584 28.9259L101.424 29.0858L101.264 29.2456C100.625 30.0446 100.146 30.3643 99.6669 30.3643C99.1877 30.3643 98.5488 29.8848 98.3891 29.4054C98.2294 28.9259 98.2294 28.1269 98.5488 27.8072C98.5488 27.8072 98.8683 28.7662 99.5071 28.7662C99.9863 28.1269 100.945 27.1681 101.903 25.5699Z" fill="#0043FA"/>
<path d="M101.104 24.9305V25.0904V25.2502V25.41V25.5698V25.7296C100.944 26.0492 100.784 26.5287 100.465 26.6885C100.145 26.8483 99.3468 27.0081 99.0273 26.209C99.1871 26.5286 100.465 26.6885 101.104 24.9305Z" fill="#0043FA"/>
<path d="M103.5 31.4829L103.66 31.6427V31.8025V31.9623L103.819 32.1221V32.282V32.4417C103.819 33.4006 103.34 34.0399 103.181 34.3595C103.181 34.3595 102.382 33.7202 102.222 32.9212C102.701 33.2408 102.861 31.9623 103.5 31.4829Z" fill="#0043FA"/>
<path d="M102.542 32.1221V31.9623V31.8024V31.6426V31.4829V31.323C102.542 31.323 103.021 30.0445 101.583 29.2455C101.583 29.2455 100.944 30.0446 100.785 30.6838C101.424 31.1633 102.222 31.4828 102.542 32.1221Z" fill="#0043FA"/>
<path d="M100.785 28.9259L100.625 29.0858C100.625 29.0858 100.465 29.725 100.625 30.0446C100.625 30.6839 101.104 31.1633 101.264 31.6427C101.264 31.6427 101.903 30.8437 101.903 30.3642C101.903 29.8848 101.903 29.5652 102.063 29.2455C101.264 29.8848 100.945 29.2455 100.785 28.9259Z" fill="#0043FA"/>
<path d="M99.1871 31.6427L99.0273 31.4829V31.323V31.1633V31.0034V30.8436C99.0273 30.8436 99.6662 31.1632 100.305 31.0034C100.305 31.0034 100.305 31.9624 100.305 32.282C99.5065 31.3231 99.3468 31.4829 99.1871 31.6427Z" fill="#0043FA"/>
<path d="M99.3472 31.9624L99.5069 31.8025C99.5069 31.8025 99.986 32.6016 99.986 32.9212C99.986 32.9212 99.8263 32.9212 99.5069 32.7614C99.6666 32.1222 99.5069 32.1222 99.3472 31.9624Z" fill="#0043FA"/>
<path d="M101.424 31.323L101.264 31.4829L101.104 31.6426L100.944 31.8024C100.944 31.8024 100.944 32.1221 101.264 32.7614C101.583 33.2408 101.903 33.7203 102.222 33.8801C102.222 33.8801 102.701 33.081 102.861 32.7614C103.021 32.2819 103.021 31.9622 102.861 31.8024C102.222 32.2819 101.743 31.8024 101.424 31.323Z" fill="#0043FA"/>
<path d="M102.542 34.1997L102.701 34.3596V34.5194V34.6792V34.839V34.9988V35.1586C102.701 35.4783 102.701 35.7979 102.542 35.9577C102.382 36.1175 102.063 36.5969 101.903 36.9166C101.903 36.9166 101.264 36.2773 101.104 35.7978C100.945 35.4782 101.104 34.9989 101.264 34.6792C102.063 34.839 102.382 34.5193 102.542 34.1997Z" fill="#0043FA"/>
<path d="M100.625 34.0399L100.785 34.1997V34.3596C100.944 34.6792 100.944 34.9988 100.785 35.4783C100.625 35.9577 100.465 36.1175 100.306 36.4371C100.306 36.4371 99.8264 35.7979 99.6667 35.4783C99.5069 35.1586 99.5069 34.6792 99.6667 34.3596C100.306 34.6792 100.465 34.3595 100.625 34.0399Z" fill="#0043FA"/>
<path d="M103.34 36.7567L103.18 36.9165V37.0764V37.2361C103.18 38.0352 103.659 38.5146 103.819 38.994C103.819 38.994 104.298 38.3548 104.458 38.0352C104.618 37.5558 104.777 37.2362 104.777 36.7567C103.979 37.5558 103.819 37.2362 103.34 36.7567Z" fill="#0043FA"/>
<path d="M101.583 36.5969L101.743 36.7568V36.9166C101.583 37.396 101.104 38.0353 100.945 38.3549C100.945 38.3549 100.625 37.5558 100.465 37.2362C100.785 38.0353 100.785 37.396 101.583 36.5969Z" fill="#0043FA"/>
<path d="M111.167 17.5793L111.007 17.4194C110.528 17.4194 110.049 17.5793 110.049 17.5793C110.049 17.7391 110.528 17.7391 111.007 17.7391C110.688 17.7391 111.167 17.5793 111.167 17.5793Z" fill="#0043FA"/>
<path d="M104.458 14.5428V14.383V14.2232V14.0634V13.9036V13.7438V13.584C104.458 13.2644 104.139 12.9447 103.819 12.9447C103.5 12.9447 103.18 13.2644 103.18 13.584C103.979 13.1046 104.458 14.0634 104.458 14.5428Z" fill="#0043FA"/>
<path d="M106.215 15.5018L106.375 15.342V15.1822V15.0223V14.8625V14.7028V14.5429V14.3831V14.2233V14.0635V13.9037V13.7438V13.5841V13.4242V13.2644V13.1047C106.375 12.9448 106.215 12.785 105.896 12.785C105.736 12.785 105.576 12.6252 105.417 12.785C105.097 12.9448 104.938 14.5429 104.778 15.342C105.736 15.1821 105.896 15.342 106.215 15.5018Z" fill="#0043FA"/>
<path d="M105.257 15.1821H105.097C105.257 14.5429 105.417 13.4242 105.576 13.1046C105.736 12.6252 105.896 12.3055 106.215 12.3055C106.215 12.3055 106.056 12.9448 105.896 13.584C105.417 14.0635 105.257 14.5429 105.257 15.1821Z" fill="#0043FA"/>
<path d="M105.736 16.6204L105.896 16.7802C106.854 17.4195 106.534 16.7802 105.736 16.6204Z" fill="#0043FA"/>
<path d="M105.257 16.3008H105.417C105.896 16.6204 106.056 16.94 106.215 17.2596C106.215 17.2596 105.417 17.2596 104.618 16.94C105.576 17.0998 105.257 16.6204 105.257 16.3008Z" fill="#0043FA"/>
<path d="M106.215 17.7391C106.215 17.7391 106.375 18.0587 106.694 18.3784C106.694 18.3784 106.375 18.3783 106.215 18.5381C106.215 18.5381 106.375 18.8577 106.694 19.0176C106.694 19.0176 105.896 19.8167 105.097 19.6568C105.097 19.6568 105.417 20.1363 106.215 19.9765C107.014 19.8167 107.333 19.3372 107.333 19.1774C107.333 19.1774 107.174 19.6568 107.333 19.8166C107.333 19.8166 107.653 19.8167 107.972 19.4971C107.972 19.4971 107.812 19.8166 107.653 20.1363C107.653 20.1363 107.812 20.1363 108.292 19.9765C108.292 19.9765 108.132 20.1363 108.132 20.4559C108.132 20.4559 109.09 20.1363 109.569 19.6568C109.569 19.6568 111.007 19.497 111.167 17.4194C111.167 17.4194 110.208 17.7391 109.25 17.7391C108.611 18.0587 106.694 17.8989 106.215 17.7391ZM108.93 18.5381C109.729 18.698 110.528 18.5381 110.528 18.5381C110.208 18.5381 108.93 18.5381 108.93 18.5381Z" fill="#0043FA"/>
<path d="M111.646 17.8988V18.0586V18.2184V18.3783V18.538V18.6979V18.8577C111.646 18.8577 112.285 18.3782 112.285 18.0586C112.125 17.8988 112.285 17.739 111.646 17.8988Z" fill="#0043FA"/>
<path d="M112.924 18.3783H112.764C112.604 19.0175 111.806 19.1773 111.486 19.3371C111.167 19.4969 110.688 19.9764 110.688 19.9764C111.326 20.1362 111.486 20.2961 111.486 20.2961C112.604 19.497 113.563 20.2961 113.563 20.2961C114.201 19.9764 114.361 19.1774 114.042 18.6979H112.924V18.3783ZM112.764 19.1774H112.924C112.924 19.3372 112.764 19.497 112.604 19.497C112.444 19.497 112.444 19.3372 112.444 19.1774C112.604 19.3372 112.604 19.1774 112.764 19.1774Z" fill="#0043FA"/>
<path d="M110.528 20.1362L110.368 20.2961C110.368 20.2961 111.806 20.2961 112.285 21.5746C112.285 21.5746 112.764 20.7755 112.445 20.2961C111.486 20.2961 111.167 20.1362 110.528 20.1362Z" fill="#0043FA"/>
<path d="M108.931 20.4559H108.771C108.771 20.4559 108.771 20.1363 108.771 19.9764C108.611 19.9764 108.451 19.9764 108.292 20.1362C108.292 20.1362 107.813 21.2549 107.493 21.5746C107.493 21.5746 107.493 21.8941 107.653 22.2138C107.653 22.2138 107.972 21.5746 108.451 21.0951C108.132 20.9353 108.292 20.7755 108.931 20.4559Z" fill="#0043FA"/>
<path d="M110.208 20.1362H110.048H109.889H109.729H109.569H109.409C108.93 20.4559 108.611 20.9353 108.611 21.5746C108.611 21.5746 108.93 21.0951 109.409 20.7755C109.25 21.0951 109.889 20.6157 110.208 20.1362Z" fill="#0043FA"/>
<path d="M110.209 15.3419H110.049C110.049 15.5017 110.368 16.141 110.528 16.3008C110.688 15.9812 111.007 15.5017 111.007 15.3419C110.688 15.3419 110.368 15.3419 110.209 15.3419Z" fill="#0043FA"/>
<path d="M110.528 17.0998V16.9399V16.7802V16.6203V16.4605V16.3007C110.688 16.1409 111.007 16.1409 111.167 16.1409C111.326 16.1409 111.486 16.3007 111.326 16.4605C111.326 16.6203 110.688 17.5792 110.528 17.739C110.847 17.0997 110.847 17.0998 110.528 17.0998Z" fill="#0043FA"/>
<path d="M109.889 17.0998V16.9399V16.7802V16.6203V16.4605V16.3007C109.729 16.1409 109.41 16.1409 109.25 16.1409C109.09 16.1409 108.93 16.3007 109.09 16.4605C109.09 16.6203 109.729 17.5792 109.889 17.739C109.569 17.0997 109.569 17.0998 109.889 17.0998Z" fill="#0043FA"/>
<path d="M109.569 14.2232H110.049V13.7438H110.368V14.2232H110.847V14.5428H110.368V15.1821H110.049V14.5428H109.569V14.2232Z" fill="#0043FA"/>
<path d="M103.82 11.027H104.299V10.5476H104.618V11.027H105.098V11.3467H104.618V11.9859H104.299V11.3467H103.82V11.027Z" fill="#0043FA"/>
<path d="M115.319 17.5793V17.4195C115.319 17.0998 115.319 16.9401 115.319 16.7803C115.639 16.9401 115.958 16.94 116.437 17.7391C116.437 17.5793 115.639 17.2597 115.319 17.5793Z" fill="#0043FA"/>
<path d="M114.681 18.8578V18.6981V18.5382V18.3784V18.2186V18.0588V17.899V17.7391C114.521 17.2597 114.521 16.4607 114.84 15.9812C115 15.5018 115.16 15.1822 115.16 14.7028C115.16 14.7028 115.639 14.8625 115.799 15.0223C115.799 15.5017 115.479 16.141 115.319 16.4607C115.16 16.7803 115.16 17.2597 115.16 17.5794C115.16 17.899 115 18.3784 114.681 18.8578Z" fill="#0043FA"/>
<path d="M114.68 14.7028V14.5429C114.68 14.5429 114.041 13.9036 113.403 13.7438C113.083 13.584 112.764 13.9037 112.764 13.9037C112.764 13.9037 112.923 13.9037 113.243 14.0635C113.562 14.3831 113.882 14.7028 114.201 14.7028C114.521 14.8626 114.521 14.8626 114.68 14.7028Z" fill="#0043FA"/>
<path d="M112.604 13.9036L112.444 14.0634C112.444 14.383 112.764 15.0223 112.924 15.1821C113.083 15.5017 113.243 15.8213 113.243 16.1409C113.243 16.3008 113.083 16.6204 112.924 16.6204C112.924 16.6204 113.722 16.4605 113.882 15.8213C114.042 15.3419 113.722 15.0223 113.562 14.7027C113.403 14.3831 113.083 13.9036 112.924 13.584C112.604 14.2232 112.604 14.0634 112.604 13.9036Z" fill="#0043FA"/>
<path d="M107.493 19.9764L107.333 20.1362V20.2961V20.4559V20.6156V20.7755V20.9353V21.0951V21.2549V21.4147V21.5746V21.7343V21.8942V22.054V22.2137C107.014 22.6932 106.854 23.3325 106.854 23.4923C106.854 23.4923 106.534 22.6932 106.694 22.054C106.375 20.9353 106.694 20.2961 107.493 19.9764Z" fill="#0043FA"/>
<path d="M106.535 20.1362H106.375C106.056 20.296 105.736 20.9353 105.577 21.5746C105.577 21.5746 106.216 21.4147 106.535 21.2549C106.056 21.0951 106.375 20.6157 106.535 20.1362Z" fill="#0043FA"/>
<path d="M109.57 21.255H109.729C109.729 21.255 109.25 21.4148 108.931 21.5746C108.771 21.7345 108.611 22.054 108.451 22.5335C108.292 23.1727 107.972 23.812 107.813 24.1316C107.813 23.6521 107.653 22.6933 107.493 22.6933C107.493 22.6933 107.972 22.3736 108.132 22.2138C108.771 21.8942 108.931 21.5746 109.57 21.255Z" fill="#0043FA"/>
<path d="M107.014 22.6932L106.854 22.853V23.0128V23.1727C107.014 23.8119 107.493 24.1315 107.653 24.6109C107.653 24.6109 107.812 23.6521 107.812 22.853C107.493 23.1726 107.333 22.853 107.014 22.6932Z" fill="#0043FA"/>
<path d="M104.458 24.2914V24.1315L104.618 23.9717L104.777 23.8119C104.777 23.3324 104.139 23.0128 103.979 22.853C103.819 22.853 103.18 23.3324 103.18 23.8119C103.659 23.1726 104.458 23.9718 104.458 24.2914Z" fill="#0043FA"/>
<path d="M105.896 22.6932L105.736 22.853V23.0128V23.1727C105.576 23.6521 105.736 23.9717 105.896 24.1315C106.056 24.4511 106.375 24.7708 106.694 25.2502C106.694 25.2502 107.014 24.7708 107.174 24.4511C107.174 24.1315 107.174 23.6521 107.014 23.3324C106.375 24.2913 106.056 23.4923 105.896 22.6932Z" fill="#0043FA"/>
<path d="M104.458 27.0081L104.618 26.8483C104.618 26.6885 104.778 26.3689 104.458 26.0493C104.299 25.7297 103.979 25.4101 103.979 25.2502C103.979 25.5699 103.66 25.7297 103.5 26.0493C103.34 26.2091 103.34 26.5287 103.34 26.8483C103.979 26.5287 104.299 26.8483 104.458 27.0081Z" fill="#0043FA"/>
<path d="M105.576 26.3689L105.736 26.5287L105.896 26.6885V26.8483C106.056 27.1679 106.215 27.4875 105.896 27.8072C105.736 28.1268 105.257 28.6062 104.778 28.9259C104.778 28.9259 105.257 28.1268 105.257 27.6474C105.257 27.3278 104.938 26.8484 104.938 26.6885C105.257 27.0082 105.417 26.6885 105.576 26.3689Z" fill="#0043FA"/>
<path d="M106.854 25.8895L106.694 26.0493C106.694 26.3689 106.694 26.6886 106.854 27.168C107.014 27.8072 107.493 28.4465 107.653 28.7661C107.653 28.7661 107.972 28.2867 108.132 27.967C108.132 27.967 107.653 27.3278 107.333 26.8484C107.014 26.8484 107.014 26.369 106.854 25.8895Z" fill="#0043FA"/>
<path d="M107.173 25.5699V25.7297V25.8896V26.0494V26.2091V26.369V26.5288V26.6886V26.8484V27.0082V27.1681V27.3278V27.4877V27.6475V27.8072V27.9671V28.1269V28.2868V28.4465V28.6063L107.333 28.7662L107.493 28.9259L107.653 29.0858L107.812 29.2456C108.451 30.0446 108.93 30.3643 109.409 30.3643C109.889 30.3643 110.528 29.8848 110.687 29.4054C110.847 28.9259 110.847 28.1269 110.528 27.8072C110.528 27.8072 110.208 28.7662 109.569 28.7662C109.09 28.1269 108.132 27.1681 107.173 25.5699Z" fill="#0043FA"/>
<path d="M107.972 24.9305V25.0904V25.2502V25.41V25.5698V25.7296C108.132 26.0492 108.292 26.5287 108.611 26.6885C108.931 26.8483 109.729 27.0081 110.049 26.209C109.889 26.5286 108.451 26.6885 107.972 24.9305Z" fill="#0043FA"/>
<path d="M104.458 29.7249L104.618 29.5651C104.778 29.2455 104.937 28.766 104.937 28.4464C104.778 27.9669 104.618 27.8072 104.458 27.4875C104.298 27.6474 104.298 27.6473 104.139 27.8071C103.979 27.6473 103.979 27.6474 103.819 27.4875C103.659 27.8072 103.5 27.9669 103.34 28.4464C103.18 28.766 103.34 29.2455 103.659 29.5651C104.139 29.5651 104.298 29.5651 104.458 29.7249Z" fill="#0043FA"/>
<path d="M104.458 32.4418V32.282L104.618 32.1221L104.778 31.9623L104.938 31.8025C104.778 31.1632 104.299 31.323 103.979 31.0034C103.66 31.323 103.181 31.1632 103.021 31.8025C103.5 31.1632 104.458 32.1221 104.458 32.4418Z" fill="#0043FA"/>
<path d="M105.576 31.4829L105.417 31.6427V31.8025L105.257 31.9623V32.1221L105.097 32.282V32.4417C105.097 33.4006 105.576 34.0399 105.736 34.3595C105.736 34.3595 106.535 33.7202 106.694 32.9212C106.375 33.2408 106.215 31.9623 105.576 31.4829Z" fill="#0043FA"/>
<path d="M106.535 32.1221L106.375 31.9623V31.8024V31.6426V31.4829V31.323C106.375 31.323 105.896 30.0445 107.333 29.2455C107.333 29.2455 107.972 30.0446 108.132 30.6838C107.653 31.1633 106.854 31.4828 106.535 32.1221Z" fill="#0043FA"/>
<path d="M108.291 28.9259L108.451 29.0858C108.451 29.0858 108.611 29.725 108.451 30.0446C108.451 30.6839 107.972 31.1633 107.812 31.6427C107.812 31.6427 107.173 30.8437 107.173 30.3642C107.014 29.8848 107.173 29.5652 107.014 29.2455C107.812 29.8848 108.132 29.2455 108.291 28.9259Z" fill="#0043FA"/>
<path d="M109.889 31.6427L110.049 31.4829V31.323V31.1633V31.0034V30.8436C110.049 30.8436 109.41 31.1632 108.771 31.0034C108.771 31.0034 108.611 31.9624 108.771 32.282C109.569 31.3231 109.729 31.4829 109.889 31.6427Z" fill="#0043FA"/>
<path d="M109.729 31.9624L109.569 31.8025C109.569 31.8025 109.09 32.6016 109.09 32.9212C109.09 32.9212 109.25 32.9212 109.569 32.7614C109.41 32.1222 109.569 32.1222 109.729 31.9624Z" fill="#0043FA"/>
<path d="M107.653 31.323V31.4829L107.813 31.6426L107.972 31.8024C107.972 31.8024 107.972 32.1221 107.653 32.7614C107.334 33.2408 107.014 33.7203 106.854 33.8801C106.854 33.8801 106.375 33.081 106.215 32.7614C106.056 32.2819 106.056 31.9622 106.215 31.8024C106.854 32.2819 107.334 31.8024 107.653 31.323Z" fill="#0043FA"/>
<path d="M104.458 37.5558V37.3959V37.2361C104.618 36.9165 104.618 36.5969 104.458 36.2773C104.298 35.9577 103.819 35.3184 103.819 35.1586C103.819 35.3184 103.34 35.9577 103.18 36.2773C103.021 36.5969 103.021 36.9165 103.18 37.2361C103.979 36.9165 104.458 37.2361 104.458 37.5558Z" fill="#0043FA"/>
<path d="M106.535 34.1997L106.375 34.3596V34.5194V34.6792V34.839V34.9988V35.1586C106.375 35.4783 106.375 35.7979 106.535 35.9577C106.694 36.1175 107.014 36.5969 107.174 36.9166C107.174 36.9166 107.812 36.2773 107.972 35.7978C108.132 35.4782 107.972 34.9989 107.812 34.6792C107.014 34.839 106.694 34.5193 106.535 34.1997Z" fill="#0043FA"/>
<path d="M108.451 34.0399L108.292 34.1997V34.3596C108.132 34.6792 108.132 34.9988 108.292 35.4783C108.451 35.9577 108.611 36.1175 108.771 36.4371C108.771 36.4371 109.41 35.7979 109.41 35.4783C109.569 35.1586 109.569 34.6792 109.41 34.3596C108.771 34.6792 108.611 34.3595 108.451 34.0399Z" fill="#0043FA"/>
<path d="M104.459 43.1491V42.9892V42.8294V42.6697V42.5098V42.35V42.1901V42.0304V41.8706V41.7107V41.551V41.3911V41.2313V41.0715V40.9117V40.7519V40.592V40.4323V40.2725V40.1126C104.459 39.4734 103.979 38.6744 103.66 38.3547C103.341 38.6744 102.861 39.6332 102.861 40.1126C103.82 41.7107 104.459 42.8295 104.459 43.1491Z" fill="#0043FA"/>
<path d="M105.736 36.7567L105.896 36.9165V37.0764V37.2361C105.896 38.0352 105.416 38.5146 105.257 38.994C105.257 38.994 104.778 38.3548 104.618 38.0352C104.458 37.5558 104.298 37.2362 104.298 36.7567C105.097 37.5558 105.257 37.2362 105.736 36.7567Z" fill="#0043FA"/>
<path d="M107.493 36.5969L107.333 36.7568V36.9166C107.493 37.396 107.972 38.0353 108.132 38.3549C108.132 38.3549 108.452 37.5558 108.611 37.2362C108.292 38.0353 108.292 37.396 107.493 36.5969Z" fill="#0043FA"/>
<path d="M105.257 45.0669V44.907V44.7473V44.5874V44.4276V44.2679V44.108V43.9482C105.417 43.4688 105.257 42.9893 104.937 42.3501C104.618 43.4688 104.299 44.2678 103.979 44.907C103.66 44.2678 103.34 43.4688 103.021 42.3501C102.542 42.9893 102.542 43.4688 102.701 43.9482C102.861 44.4276 103.34 44.9071 103.34 45.866C103.34 46.8248 102.382 47.1444 102.382 47.1444C102.701 47.3042 103.18 47.3043 103.819 46.665C103.979 46.5052 103.979 46.5052 104.139 46.3454C104.139 46.5052 104.299 46.665 104.458 46.665C105.097 47.3043 105.417 47.1444 105.736 47.1444C106.215 46.1856 105.097 45.866 105.257 45.0669Z" fill="#0043FA"/>
<path d="M101.903 38.994V39.1539V39.3137V39.4735V39.6333V39.7931V39.953C102.062 40.2726 101.903 40.752 101.264 41.2314C101.264 41.2314 100.784 40.9118 100.625 40.5921C100.465 40.2725 100.625 39.9529 100.784 39.7931C101.423 39.6333 101.903 39.3136 101.903 38.994Z" fill="#0043FA"/>
<path d="M103.34 40.2726V40.4324V40.5921V40.752V40.9118C102.861 41.551 102.382 42.1902 101.743 42.1902C101.264 42.1902 101.104 41.8706 100.944 41.7108C100.944 41.7108 101.104 41.0716 101.583 40.9118C101.903 41.8706 102.861 41.0716 103.34 40.2726Z" fill="#0043FA"/>
<path d="M101.583 41.5511L101.424 41.3912C101.424 41.3912 100.944 41.5511 100.465 41.8707C99.9861 42.1904 99.6666 42.6698 99.3472 42.8296C99.3472 42.8296 99.9861 42.9894 100.465 42.8296C100.465 42.8296 100.625 42.1903 101.104 42.0305C100.944 41.8707 101.264 41.7109 101.583 41.5511Z" fill="#0043FA"/>
<path d="M101.104 41.0717L100.944 40.9119C100.944 40.9119 99.9857 41.5511 99.826 41.7109C99.5066 41.8707 99.0274 42.51 98.8677 42.6699C98.8677 42.6699 99.5066 42.51 100.145 42.3502C100.465 41.5512 100.784 41.2315 101.104 41.0717Z" fill="#0043FA"/>
<path d="M99.5067 42.0304H99.3469H99.1872H99.0275H98.8678H98.7081H98.5483H98.3886C97.9094 42.1902 97.59 42.35 97.1108 42.8294C97.1108 42.8294 97.7497 42.9893 98.0692 43.1491C98.0692 43.1491 98.708 42.8294 99.1872 42.5098C98.8678 42.9892 99.1872 42.5098 99.5067 42.0304Z" fill="#0043FA"/>
<path d="M98.5487 45.2267L98.7084 45.067C98.7084 44.9071 98.2293 44.5874 98.0695 44.5874C97.7501 44.4276 96.6321 44.1081 96.3126 43.9482C96.3126 43.9482 96.1529 44.108 95.9932 44.4277C95.9932 44.5875 95.9932 44.5874 96.1529 44.5874C96.4723 44.5874 97.1112 44.5874 97.4307 44.5874C97.5904 44.7472 97.5904 44.9071 97.5904 45.067C97.5904 45.067 97.9098 44.9071 98.0695 44.9071C98.2293 44.7473 98.389 44.7473 98.5487 45.2267Z" fill="#0043FA"/>
<path d="M97.5903 43.7883H97.7501C97.7501 43.7883 97.9098 43.7883 98.0695 43.4687C98.2292 43.3089 98.5487 42.8295 98.8681 42.6696C98.8681 42.6696 98.5487 42.6696 98.389 42.5098C98.389 42.5098 98.0695 42.6696 97.7501 42.6696C98.2292 43.3089 97.9098 43.4686 97.5903 43.7883Z" fill="#0043FA"/>
<path d="M100.306 43.1492H100.146C100.146 43.1492 99.1876 43.7884 99.0279 44.4276C98.8682 45.0669 99.1876 45.2266 99.3474 45.3865C99.5071 45.5463 100.146 45.7061 100.625 44.907C100.625 44.907 99.8265 45.0669 99.6668 44.7473C99.5071 44.4277 99.8265 43.9482 99.9862 43.7884C100.306 43.6285 100.785 43.4688 100.945 43.4688C100.945 43.4688 100.625 43.309 100.306 43.1492Z" fill="#0043FA"/>
<path d="M94.0767 50.6604V50.5005V50.3407V50.1809V50.0211V49.8613V49.7014V49.5417V49.3818V49.222V49.0622V48.9024V48.7426V48.5827C94.5558 47.6239 95.5141 45.2267 97.7503 44.9071C97.91 44.9071 97.4308 44.4277 97.2711 44.4277C97.1114 44.4277 96.6322 44.7473 96.4725 44.7473C96.4725 44.7473 96.4725 44.2678 96.4725 44.108C96.4725 43.9482 96.3128 43.9482 96.3128 43.9482C96.153 43.9482 95.6739 43.9482 95.5142 44.108C95.035 44.7473 94.2364 46.1856 93.7572 47.4641C93.278 48.5828 92.9586 48.9024 92.4794 48.7426C92.0003 48.5828 91.6808 47.9435 90.7225 48.1033C90.4031 48.1033 90.0836 48.423 89.7642 48.7426C89.9239 48.9024 89.9239 49.0622 90.4031 49.0622C90.8822 49.0622 91.6808 49.222 92.0003 49.5417C93.1183 50.5005 93.4378 50.5006 94.0767 50.6604Z" fill="#0043FA"/>
<path d="M102.861 43.1492V43.3089C102.861 43.3089 102.222 46.3454 99.8262 46.665C99.8262 46.665 99.8262 46.0258 100.625 45.5463C101.264 45.0669 102.382 44.2678 102.382 43.1492C102.382 43.1492 102.222 43.1492 101.903 43.6286C101.583 44.108 100.785 45.3865 99.6665 45.3865C99.6665 45.3865 99.8262 44.7473 100.305 44.4276C100.785 44.108 101.423 43.6286 101.743 43.1492C102.382 43.4688 102.701 43.1492 102.861 43.1492Z" fill="#0043FA"/>
<path d="M101.743 54.3359L103.181 56.4135L104.299 54.4957L103.979 53.6967C103.66 54.1761 103.34 54.8154 103.181 55.135C103.021 54.9752 102.701 54.4957 102.222 53.6967L101.743 54.3359Z" fill="#0043FA"/>
<path d="M101.424 52.5779L101.104 52.2583L100.785 51.7788L100.625 51.4593L100.306 51.1396L99.9864 50.6602L99.667 50.3406V50.1807L99.5073 50.0209L99.3475 49.7013L99.1878 49.5415V49.3817L99.0281 49.2219L98.8684 49.0621L98.7087 48.9022V48.7425H98.5489V48.5826L98.3892 48.4228V48.2631H98.2295V48.1032L98.0698 47.9434L98.5489 47.464L96.792 46.8247V48.7425L97.4309 48.2631L100.945 53.2172L101.424 52.5779Z" fill="#0043FA"/>
<path d="M89.2845 41.3912L89.4442 41.2314C90.2428 41.8707 90.722 42.6698 90.2428 43.1492C89.7637 43.6286 89.1248 43.1491 88.3262 42.5099C89.2845 42.5099 88.8053 41.8706 89.2845 41.3912Z" fill="#0043FA"/>
<path d="M90.5625 49.7014C90.0834 49.222 89.9237 48.7426 89.9237 48.2632C89.9237 47.1445 90.882 46.1856 92 46.1856C93.1181 46.1856 94.0764 47.1445 94.0764 48.2632C94.0764 48.423 94.0764 48.5827 94.0764 48.5827C94.2361 48.4229 94.5556 47.6239 94.5556 47.4641C94.2361 46.3455 93.2778 45.5464 92 45.5464C91.0417 45.5464 90.0834 46.1856 89.6042 46.9846C89.7639 46.0258 90.2431 45.0669 90.5625 44.7473C91.0417 44.2679 91.6806 44.2679 91.6806 44.2679C91.2014 44.2679 90.5625 44.1081 89.9237 43.4688C89.2848 42.8296 88.9653 42.3502 88.8056 41.8707C88.8056 42.51 88.8056 42.8295 88.6459 43.309C88.3264 43.9482 87.6875 45.3865 88.007 46.8248C88.1667 47.6239 88.6459 48.9024 89.7639 49.8613C89.9236 50.0211 90.0834 50.3407 90.0834 50.5005C90.0834 50.5005 91.5209 50.5005 91.8403 50.5005C91.8403 50.5005 92.1598 50.5005 92.1598 50.1809C92.1598 50.021 92 49.8613 91.8403 49.8613C91.5209 50.0211 90.882 50.0211 90.5625 49.7014Z" fill="#0043FA"/>
<path d="M98.3891 50.1809H98.2294H98.0697H97.9099H97.7502H97.5905H97.4308H97.271H97.1113H96.9516H96.7919H96.6322H96.4724H96.153H95.8335C95.1947 50.3407 94.7155 50.3408 94.2363 50.3408C94.2363 50.5006 94.2363 50.5006 94.2363 50.6604C94.2363 50.6604 94.3961 50.8202 94.3961 50.98C94.8752 50.98 95.5141 50.98 96.153 50.8202C97.1113 50.6604 98.0697 50.5005 99.1877 50.1809H98.3891Z" fill="#0043FA"/>
<path d="M99.9857 50.1808L100.145 50.021L100.305 49.8612L100.465 49.7014L100.625 49.5416L100.784 49.3817L100.944 49.2219L101.104 49.0622L101.264 48.9023L101.423 48.7425L101.583 48.5827L101.743 48.4229L101.902 48.1032L102.062 47.7836L102.222 47.4641L102.382 47.1444L102.541 46.9845L102.701 46.8248L102.861 46.5051C102.541 46.6649 102.222 46.5051 102.222 46.5051C102.222 46.5051 102.222 46.665 102.062 46.665C101.104 48.1033 99.9857 49.0621 98.8677 49.7014L99.9857 50.1808Z" fill="#0043FA"/>
<path d="M91.8403 50.6603H91.6806H91.5208H91.3611C91.0417 50.6603 90.5625 50.82 90.5625 50.9798C90.5625 51.1396 90.7222 51.2995 90.8819 51.6191C91.0417 51.7789 91.2014 51.6191 91.3611 51.6191C91.5208 51.6191 92.3195 51.1396 92.4792 50.9798C92 50.9798 92.1597 50.6603 91.8403 50.6603Z" fill="#0043FA"/>
<path d="M92.7988 51.2994H92.6391C92.4793 51.4593 91.521 51.9387 91.521 52.0985C91.521 52.2583 91.521 52.4181 91.6807 52.5779C91.8404 52.5779 92.0002 52.7378 92.1599 52.7378C92.3196 52.7378 92.6391 52.578 92.6391 52.4182C92.7988 52.2583 93.1182 51.7789 93.1182 51.7789C92.7988 51.4592 92.7988 51.2994 92.7988 51.2994Z" fill="#0043FA"/>
<path d="M92.7984 51.7789L92.6387 51.9388C92.6387 51.9388 92.6387 52.0986 92.7984 52.0986C92.9581 52.0986 93.4373 52.0985 93.7567 51.7789C94.0762 51.6191 94.2359 51.1397 94.0762 50.9799C93.597 51.2995 93.2776 51.2995 92.7984 51.7789Z" fill="#0043FA"/>
<path d="M92.9582 50.5005H92.7985C92.6388 50.6603 92.7985 50.8201 93.1179 50.9799C93.4374 51.1397 94.0763 51.2996 94.236 51.1398C93.9166 50.98 93.7568 50.6603 92.9582 50.5005Z" fill="#0043FA"/>
<path d="M107.014 38.994V39.1539V39.3137V39.4735V39.6333V39.7931V39.953C107.014 40.2726 107.014 40.752 107.653 41.2314C107.653 41.2314 108.132 40.9118 108.291 40.5921C108.451 40.2725 108.291 39.9529 108.132 39.7931C107.653 39.6333 107.173 39.3136 107.014 38.994Z" fill="#0043FA"/>
<path d="M105.736 40.2726V40.4324V40.5921V40.752V40.9118C106.215 41.551 106.694 42.1902 107.333 42.1902C107.812 42.1902 107.972 41.8706 108.132 41.7108C108.132 41.7108 107.972 41.0716 107.493 40.9118C107.173 41.8706 106.055 41.0716 105.736 40.2726Z" fill="#0043FA"/>
<path d="M107.493 41.5511L107.653 41.3912C107.653 41.3912 108.132 41.5511 108.611 41.8707C109.09 42.1904 109.41 42.6698 109.729 42.8296C109.729 42.8296 109.09 42.9894 108.611 42.8296C108.611 42.8296 108.451 42.1903 107.972 42.0305C108.132 41.8707 107.813 41.7109 107.493 41.5511Z" fill="#0043FA"/>
<path d="M107.972 41.0717L108.132 40.9119C108.132 40.9119 109.09 41.5511 109.25 41.7109C109.569 41.8707 110.049 42.51 110.208 42.6699C110.208 42.6699 109.569 42.51 108.931 42.3502C108.611 41.5512 108.132 41.2315 107.972 41.0717Z" fill="#0043FA"/>
<path d="M109.569 42.0304H109.729H109.889H110.049H110.208H110.368H110.528H110.687C111.167 42.1902 111.486 42.35 111.965 42.8294C111.965 42.8294 111.326 42.9893 111.007 43.1491C111.007 43.1491 110.368 42.8294 109.729 42.5098C110.049 42.9892 109.889 42.5098 109.569 42.0304Z" fill="#0043FA"/>
<path d="M110.528 45.2267L110.368 45.067C110.528 44.9071 110.847 44.5874 111.007 44.5874C111.486 44.4276 112.445 44.1081 112.764 43.9482C112.764 43.9482 112.924 44.108 113.083 44.4277C113.083 44.5875 113.083 44.5874 112.924 44.5874C112.604 44.5874 111.965 44.5874 111.806 44.5874C111.646 44.7472 111.646 44.9071 111.646 45.067C111.646 45.067 111.326 44.9071 111.167 44.9071C110.847 44.7473 110.688 44.7473 110.528 45.2267Z" fill="#0043FA"/>
<path d="M111.486 43.7883H111.326C111.326 43.7883 111.166 43.7883 111.007 43.4687C110.847 43.3089 110.527 42.8295 110.208 42.6696C110.208 42.6696 110.527 42.6696 110.687 42.5098C110.687 42.5098 111.007 42.6696 111.326 42.6696C110.847 43.3089 111.166 43.4686 111.486 43.7883Z" fill="#0043FA"/>
<path d="M108.611 43.1492H108.771C108.771 43.1492 109.729 43.7884 109.889 44.4276C110.049 45.0669 109.729 45.2266 109.569 45.3865C109.41 45.5463 108.771 45.7061 108.292 44.907C108.292 44.907 109.09 45.0669 109.25 44.7473C109.41 44.4277 109.09 43.9482 108.931 43.7884C108.611 43.6285 108.132 43.4688 107.972 43.4688C108.132 43.4688 108.451 43.309 108.611 43.1492Z" fill="#0043FA"/>
<path d="M114.84 50.6604V50.5005V50.3407V50.1809V50.0211V49.8613V49.7014V49.5417V49.3818V49.222V49.0622V48.9024V48.7426V48.5827C114.361 47.6239 113.403 45.2267 111.167 44.9071C111.007 44.9071 111.326 44.4277 111.646 44.4277C111.805 44.4277 112.285 44.7473 112.444 44.7473V44.108C112.444 43.9482 112.604 43.9482 112.604 43.9482C112.764 43.9482 113.243 43.9482 113.403 44.108C113.882 44.7473 114.68 46.1856 115.16 47.4641C115.639 48.5828 115.958 48.9024 116.437 48.7426C116.917 48.5828 117.236 47.9435 118.194 48.1033C118.514 48.1033 118.833 48.423 119.153 48.7426C119.153 48.9024 118.993 49.0622 118.514 49.0622C118.035 49.0622 117.396 49.222 116.917 49.5417C115.958 50.5005 115.479 50.5006 114.84 50.6604Z" fill="#0043FA"/>
<path d="M106.215 43.1492V43.3089L106.056 43.4688C106.056 43.4688 106.695 46.5052 109.09 46.8248C109.09 46.8248 109.09 46.1856 108.292 45.7061C107.493 45.2267 106.535 44.4276 106.535 43.3089C106.535 43.3089 106.695 43.3089 107.014 43.7884C107.333 44.2678 108.132 45.5463 109.25 45.5463C109.25 45.5463 109.09 44.907 108.611 44.5874C108.132 44.2678 107.493 43.7884 107.174 43.3089C106.695 43.4688 106.375 43.1492 106.215 43.1492Z" fill="#0043FA"/>
<path d="M104.458 46.1855V46.3454V46.5052L104.618 46.6651L104.777 46.8248L104.937 46.9846V47.1445C105.257 47.4641 106.375 48.4229 106.854 48.9024C106.854 48.9024 105.416 48.5827 104.458 47.7837C104.458 47.7837 103.819 48.1033 103.5 48.1033C103.021 48.1033 102.541 47.7837 102.541 47.7837C101.743 48.5827 100.146 48.9024 100.146 48.9024C100.625 48.4229 101.583 47.4641 102.062 47.1445C103.5 47.7837 104.458 46.5052 104.458 46.1855Z" fill="#0043FA"/>
<path d="M104.459 49.5417H104.618C104.459 49.8614 104.139 50.5006 103.82 50.6604C103.5 50.5006 103.181 49.8614 103.021 49.5417C103.82 49.3819 104.139 49.5417 104.459 49.5417Z" fill="#0043FA"/>
<path d="M105.736 56.4134L111.486 48.2631L112.125 48.7425V46.8247L110.368 47.464L110.847 47.9434C110.528 48.4228 106.215 54.4957 105.736 55.135L103.18 50.3406L102.861 50.82L100.465 54.3359L99.8262 54.0162V55.934L101.583 55.2947L100.944 54.8153C101.264 54.3359 102.541 52.4181 103.021 51.7788L105.736 56.4134Z" fill="#0043FA"/>
<path d="M106.854 53.2173L106.694 53.0575L106.535 52.8976V52.7379V52.578V52.4182V52.2584V52.0986V51.9388V51.7789C106.375 52.0986 106.055 52.578 105.736 53.2173L105.257 52.4182L106.375 50.3407L106.694 50.8201L107.812 52.578L106.854 53.2173Z" fill="#0043FA"/>
<path d="M108.132 53.6967L108.611 54.3359L109.25 54.0163V55.9341L107.493 55.2948L108.132 54.8154C108.132 54.6556 107.972 54.6556 107.813 54.3359L108.132 53.6967Z" fill="#0043FA"/>
<path d="M119.792 41.3912L119.632 41.2314C118.833 41.8707 118.354 42.6698 118.833 43.1492C119.312 43.6286 119.951 43.1491 120.75 42.5099C119.792 42.5099 120.111 41.8706 119.792 41.3912Z" fill="#0043FA"/>
<path d="M118.514 49.7014C118.993 49.222 119.152 48.7426 119.152 48.2632C119.152 47.1445 118.194 46.1856 117.076 46.1856C115.958 46.1856 115 47.1445 115 48.2632C115 48.423 115 48.5827 115 48.5827C114.84 48.4229 114.521 47.6239 114.521 47.4641C114.84 46.3455 115.798 45.5464 117.076 45.5464C118.034 45.5464 118.993 46.1856 119.472 46.9846C119.312 46.0258 118.833 45.0669 118.514 44.7473C118.034 44.2679 117.395 44.2679 117.395 44.2679C117.875 44.2679 118.514 44.1081 119.152 43.4688C119.791 42.8296 120.111 42.3502 120.27 41.8707C120.27 42.51 120.27 42.8295 120.43 43.309C120.75 43.9482 121.389 45.3865 121.069 46.8248C120.909 47.6239 120.43 48.9024 119.312 49.8613C119.152 50.0211 118.993 50.3407 118.993 50.5005C118.993 50.5005 117.555 50.5005 117.236 50.5005C117.236 50.5005 116.916 50.5005 116.916 50.1809C116.916 50.021 117.076 49.8613 117.236 49.8613C117.395 50.0211 118.194 50.0211 118.514 49.7014Z" fill="#0043FA"/>
<path d="M109.091 50.1807L108.931 50.021L108.771 49.8612L108.611 49.7013L108.452 49.5416L108.292 49.3817L108.132 49.2219L107.972 49.0621L107.813 48.9023L107.653 48.7425L106.854 48.4229L106.695 48.2631L106.535 47.9434L106.375 47.6238L106.216 47.3042L106.056 46.9845L105.896 46.8248L105.736 46.665L105.577 46.3453C105.896 46.5051 106.216 46.3453 106.216 46.3453C106.216 46.3453 106.216 46.5051 106.375 46.5051C107.334 47.9434 108.452 48.9023 109.57 49.5416L109.091 50.1807Z" fill="#0043FA"/>
<path d="M110.528 50.1809H110.688H110.848H111.007H111.167H111.327H111.486H111.646H111.806H111.966H112.125H112.285H112.445H112.764H113.084C113.723 50.3407 114.202 50.3408 114.681 50.3408C114.681 50.5006 114.681 50.5006 114.681 50.6604C114.681 50.6604 114.521 50.8202 114.521 50.98C114.042 50.98 113.403 50.98 112.764 50.8202C111.806 50.6604 110.848 50.5005 109.729 50.1809H110.528Z" fill="#0043FA"/>
<path d="M117.236 50.6603H117.396H117.555H117.715H117.875C118.194 50.6603 118.673 50.82 118.673 50.9798C118.673 51.1396 118.514 51.2995 118.354 51.6191C118.194 51.7789 118.035 51.6191 117.875 51.6191C117.715 51.6191 116.917 51.1396 116.757 50.9798C116.917 50.9798 116.917 50.6603 117.236 50.6603Z" fill="#0043FA"/>
<path d="M116.278 51.2994H116.438C116.597 51.4593 117.556 51.9387 117.556 52.0985C117.556 52.2583 117.556 52.4181 117.396 52.5779C117.236 52.5779 117.077 52.7378 116.917 52.7378C116.757 52.7378 116.438 52.578 116.438 52.4182C116.278 52.2583 115.958 51.7789 115.958 51.7789C116.278 51.4592 116.278 51.2994 116.278 51.2994Z" fill="#0043FA"/>
<path d="M116.278 51.7789L116.438 51.9388C116.438 51.9388 116.438 52.0986 116.278 52.0986C116.118 52.0986 115.639 52.0985 115.32 51.7789C115 51.6191 114.84 51.1397 115 50.9799C115.479 51.2995 115.799 51.2995 116.278 51.7789Z" fill="#0043FA"/>
<path d="M116.118 50.5005H116.278C116.438 50.6603 116.278 50.8201 115.958 50.9799C115.639 51.1397 115 51.2996 114.84 51.1398C115.16 50.98 115.319 50.6603 116.118 50.5005Z" fill="#0043FA"/>
</svg>
