<svg width="47" height="48" viewBox="0 0 47 48" fill="none" xmlns="http://www.w3.org/2000/svg">
<g clip-path="url(#clip0)">
<path d="M45.0259 27.5158C46.4182 15.7961 44.357 8.39708 40.639 5.05052L40.6409 5.04858C34.6401 -0.666432 14.3741 -1.51231 7.19482 5.30526C3.97077 8.64014 2.83516 13.5346 2.71071 19.5937C2.58626 25.6549 2.43848 37.0091 13.0187 40.0892H13.0284L13.0187 44.7931C13.0187 44.7931 12.9468 46.6987 14.1641 47.0818C15.5564 47.5329 16.1864 46.6482 20.5169 41.4757C27.7584 42.1038 33.3197 40.6648 33.9517 40.4548C35.414 39.9648 43.688 38.87 45.0259 27.5158ZM21.2305 38.1661C21.2305 38.1661 16.6472 43.8811 15.2219 45.3648C14.7552 45.847 14.2438 45.8023 14.2516 44.8456C14.2516 44.2175 14.2866 37.0363 14.2866 37.0363C5.3164 34.4656 5.84531 24.7973 5.94254 19.7396C6.03977 14.6799 6.96537 10.5361 9.69551 7.74566C15.9939 1.84008 33.7612 3.16043 38.288 7.41508C43.8222 12.3212 41.8524 26.1819 41.8641 26.6544C40.7265 36.1321 34.0217 36.7329 32.7889 37.1432C32.2619 37.3182 27.3714 38.5764 21.2305 38.1661Z" fill="black"/>
<path d="M23.7662 8.85596C23.0175 8.85596 23.0175 10.0227 23.7662 10.0324C29.5745 10.0771 34.3581 14.1257 34.4106 21.5519C34.4106 22.3355 35.5579 22.3258 35.5482 21.5421H35.5462C35.484 13.5404 30.261 8.90068 23.7662 8.85596Z" fill="black"/>
<path d="M31.4063 20.3209C31.3888 21.0949 32.5341 21.1318 32.5439 20.3482C32.6391 15.936 29.9187 12.3017 24.8065 11.9186C24.0579 11.8641 23.9801 13.0406 24.7268 13.095C29.1604 13.4314 31.4958 16.4571 31.4063 20.3209Z" fill="black"/>
<path d="M30.1812 25.3399C29.2206 24.7838 28.2425 25.1299 27.838 25.6763L26.9921 26.7711C26.5624 27.3272 25.7593 27.2534 25.7593 27.2534C19.8984 25.7036 18.3311 19.5705 18.3311 19.5705C18.3311 19.5705 18.2592 18.7401 18.7959 18.2948L19.8537 17.4198C20.3826 16.9998 20.7171 15.9886 20.1785 14.995C18.7395 12.3951 17.7731 11.4987 17.2811 10.8103C16.7638 10.1628 15.986 10.0169 15.1771 10.4544H15.1596C13.4776 11.4384 11.6361 13.2799 12.2253 15.1758C13.2306 17.1748 15.0779 23.5471 20.966 28.3617C23.7331 30.6388 28.1122 32.9722 29.9712 33.5109L29.9887 33.5381C31.8204 34.1487 33.6016 32.2353 34.5525 30.5027V30.4891C34.9745 29.651 34.8345 28.8576 34.218 28.3384C33.1252 27.2728 31.4762 26.0963 30.1812 25.3399Z" fill="black"/>
<path d="M25.6076 16.2587C27.4763 16.3676 28.3825 17.3438 28.4797 19.3486C28.5147 20.1323 29.6523 20.0778 29.6173 19.2942C29.4928 16.6768 28.1278 15.2184 25.6698 15.0823C24.9212 15.0376 24.8512 16.214 25.6076 16.2587Z" fill="black"/>
</g>
<defs>
<clipPath id="clip0">
<rect width="46.669" height="46.669" fill="white" transform="translate(0 0.500244)"/>
</clipPath>
</defs>
</svg>
