<svg width="47" height="47" viewBox="0 0 47 47" fill="none" xmlns="http://www.w3.org/2000/svg">
<g clip-path="url(#clip0)">
<path d="M23.9336 37.5802C30.5774 37.5129 28.1658 33.3309 28.6664 32.1164C28.6496 31.2133 28.6331 30.3446 28.6584 29.8162C29.0806 29.9305 30.0788 30.4237 32.1503 32.3968C35.3496 35.5603 36.1783 37.4561 38.7367 37.4302L43.4459 37.3824C44.9385 37.3673 45.7091 36.7413 46.0923 36.2188C46.4623 35.7137 46.8207 34.8298 46.405 33.4637C45.321 30.1755 39.1362 24.541 38.7493 23.944C38.8056 23.8324 38.8959 23.6841 38.943 23.6071L38.9392 23.6072C40.1323 21.9971 44.6776 15.0348 45.3289 12.261C45.3308 12.2571 45.3326 12.2514 45.3326 12.2456C45.6872 10.979 45.3421 10.1634 44.9891 9.70384C44.4578 9.01645 43.62 8.67473 42.4929 8.68616L37.7837 8.73389C36.2069 8.74987 35.019 9.55611 34.429 11.0108C33.4429 13.5947 30.653 18.9164 28.5403 20.8114C28.4484 18.1579 28.4718 16.1311 28.491 14.6248C28.5301 11.6868 28.7231 8.82573 25.6749 8.85663L18.2733 8.93165C16.3636 8.95101 14.5573 11.0553 16.561 13.5113C18.3128 15.6637 17.2172 16.8843 17.6513 22.9005C16.1812 21.3557 13.5514 17.1703 11.6675 11.8061C11.14 10.3551 10.3494 9.01389 8.16222 9.03606L3.45302 9.08379C1.54332 9.10315 0.413403 10.1557 0.431073 11.8989C0.470757 15.814 9.36016 37.7279 23.9336 37.5802ZM8.19132 11.9064C8.60655 11.9021 8.64865 11.9017 8.9656 12.7731C10.8949 18.2708 15.1797 26.3913 18.249 26.3602C20.5548 26.3369 20.5309 23.9736 20.5219 23.0838L20.4481 16C20.2981 13.6572 19.4328 12.4986 18.865 11.7962L25.5777 11.7359C25.5819 11.7684 25.6189 19.5722 25.6955 21.4621C25.7227 24.1468 27.8699 25.6637 31.1634 22.2622C34.6346 18.2636 37.0028 12.3147 37.098 12.0726C37.238 11.7268 37.3612 11.6088 37.8128 11.6042L42.522 11.5565L42.5411 11.5563C42.5393 11.562 42.5393 11.5678 42.5375 11.5735C42.1273 13.5871 37.9422 20.0329 36.5406 22.0354C36.518 22.0663 36.4973 22.099 36.4765 22.1318C35.8612 23.1599 35.3636 24.2941 36.6005 25.8699L36.6025 25.8699C36.7148 26.0027 37.0069 26.3136 37.4323 26.7456C38.7549 28.0833 43.2908 32.6571 43.7075 34.49C43.4438 34.5348 43.1565 34.5071 38.7076 34.5618C37.7604 34.5714 37.0055 33.1629 34.1504 30.3404C31.5841 27.8938 29.9244 26.9002 28.4223 26.9154C25.5061 26.945 25.7425 29.3099 25.7983 32.1722C25.8393 35.2759 25.8102 34.2945 25.8332 34.4894C25.6636 34.5581 25.177 34.697 23.9045 34.7099C11.7632 34.833 3.66111 15.6419 3.31952 11.9615C3.42467 11.9508 4.87327 11.9419 8.19132 11.9064Z" fill="black"/>
</g>
<defs>
<clipPath id="clip0">
<rect width="45.9271" height="45.9271" fill="white" transform="translate(0.315552 0.501953) rotate(-0.580746)"/>
</clipPath>
</defs>
</svg>
