<svg width="44" height="44" viewBox="0 0 44 44" fill="none" xmlns="http://www.w3.org/2000/svg">
<path fill-rule="evenodd" clip-rule="evenodd" d="M36.0485 7.23712C32.2477 3.43181 27.1928 1.33524 21.8077 1.33301C10.7112 1.33301 1.68017 10.3637 1.6757 21.4633C1.67421 25.0114 2.60112 28.4751 4.36293 31.528L1.50684 41.96L12.1791 39.1605C15.1198 40.7646 18.4304 41.6099 21.7995 41.6109H21.808C32.9033 41.6109 41.9353 32.5794 41.9395 21.4794C41.9417 16.1 39.8496 11.0422 36.0485 7.23712ZM21.8077 38.211H21.8008C18.7984 38.2098 15.8538 37.4029 13.2843 35.8786L12.6736 35.5159L6.34047 37.1772L8.03087 31.0026L7.63288 30.3695C5.95786 27.7054 5.07336 24.6261 5.07484 21.4645C5.07832 12.2389 12.5848 4.73314 21.8144 4.73314C26.2838 4.73463 30.4851 6.47735 33.6442 9.64017C36.8033 12.803 38.5421 17.007 38.5406 21.4782C38.5366 30.7045 31.0306 38.211 21.8077 38.211ZM30.986 25.679C30.4831 25.427 28.0099 24.2105 27.5487 24.0424C27.0879 23.8745 26.7522 23.7909 26.4172 24.2943C26.0817 24.7977 25.1178 25.9309 24.8242 26.2664C24.5306 26.6022 24.2375 26.6443 23.7344 26.3924C23.2313 26.1407 21.6106 25.6093 19.6891 23.8956C18.1938 22.5618 17.1844 20.9145 16.8908 20.4111C16.5977 19.9073 16.8883 19.6613 17.1114 19.3846C17.656 18.7084 18.2013 17.9994 18.3689 17.6639C18.5368 17.3282 18.4527 17.0343 18.3267 16.7826C18.2013 16.5309 17.1953 14.055 16.7762 13.0475C16.3675 12.067 15.9532 12.1994 15.6442 12.1841C15.3511 12.1694 15.0156 12.1665 14.6801 12.1665C14.3449 12.1665 13.7998 12.2922 13.3386 12.7961C12.8776 13.2997 11.5783 14.5165 11.5783 16.9924C11.5783 19.4684 13.3808 21.8603 13.6322 22.196C13.8837 22.5318 17.1794 27.6126 22.2253 29.7913C23.4255 30.31 24.3623 30.6192 25.093 30.8511C26.2982 31.2339 27.3944 31.1799 28.2613 31.0505C29.2279 30.9059 31.2372 29.8334 31.6567 28.6586C32.0758 27.4834 32.0758 26.4764 31.9498 26.2664C31.8244 26.0566 31.4889 25.9309 30.986 25.679Z" fill="black"/>
</svg>
